solid Exported from Blender-2.71 (sub 0)
facet normal 0.341976 -0.000000 0.939709
outer loop
vertex 8.495293 -14.995293 0.000000
vertex -10.000000 21.995293 6.730745
vertex -10.000000 3.500000 6.730745
endloop
endfacet
facet normal 0.341976 -0.000000 0.939709
outer loop
vertex -10.000000 3.500000 6.730745
vertex -10.000000 -14.995293 6.730745
vertex 8.495293 -14.995293 0.000000
endloop
endfacet
facet normal -0.341976 0.000000 0.939709
outer loop
vertex -28.495293 3.500000 0.000000
vertex -28.495293 -14.995293 0.000000
vertex -10.000000 21.995293 6.730745
endloop
endfacet
facet normal -0.341976 0.000000 0.939709
outer loop
vertex -10.000000 21.995293 6.730745
vertex -28.495293 21.995293 0.000000
vertex -28.495293 3.500000 0.000000
endloop
endfacet
facet normal -0.341976 0.000000 0.939709
outer loop
vertex -28.495293 -14.995293 0.000000
vertex -10.000000 -14.995293 6.730745
vertex -10.000000 3.500000 6.730745
endloop
endfacet
facet normal -0.341976 0.000000 0.939709
outer loop
vertex -10.000000 3.500000 6.730745
vertex -10.000000 21.995293 6.730745
vertex -28.495293 -14.995293 0.000000
endloop
endfacet
facet normal 0.341976 0.000000 0.939709
outer loop
vertex 8.495293 3.500000 0.000000
vertex 8.495293 21.995293 0.000000
vertex -10.000000 21.995293 6.730745
endloop
endfacet
facet normal 0.341976 0.000000 0.939709
outer loop
vertex -10.000000 21.995293 6.730745
vertex 8.495293 -14.995293 0.000000
vertex 8.495293 3.500000 0.000000
endloop
endfacet
endsolid Exported from Blender-2.71 (sub 0)
