solid Exported from Blender-2.71 (sub 0)
facet normal -1.000000 0.000000 0.000000
outer loop
vertex 2.500000 7.686257 0.000000
vertex 2.500000 2.686257 0.000000
vertex 2.500000 2.686257 10.000000
endloop
endfacet
facet normal -1.000000 0.000000 0.000000
outer loop
vertex 2.500000 2.686257 10.000000
vertex 2.500000 7.686257 10.000000
vertex 2.500000 7.686257 0.000000
endloop
endfacet
facet normal 0.000000 1.000000 -0.000000
outer loop
vertex 2.500000 7.686257 10.000000
vertex 12.500000 7.686257 10.000000
vertex 12.500000 7.686257 0.000000
endloop
endfacet
facet normal -0.000000 1.000000 0.000000
outer loop
vertex 12.500000 7.686257 0.000000
vertex 2.500000 7.686257 0.000000
vertex 2.500000 7.686257 10.000000
endloop
endfacet
facet normal 1.000000 0.000000 0.000000
outer loop
vertex 12.500000 7.686257 10.000000
vertex 12.500000 2.686257 10.000000
vertex 12.500000 2.686257 0.000000
endloop
endfacet
facet normal 1.000000 0.000000 0.000000
outer loop
vertex 12.500000 2.686257 0.000000
vertex 12.500000 7.686257 0.000000
vertex 12.500000 7.686257 10.000000
endloop
endfacet
facet normal -0.000000 -1.000000 -0.000000
outer loop
vertex 2.500000 2.686257 0.000000
vertex 12.500000 2.686257 0.000000
vertex 12.500000 2.686257 10.000000
endloop
endfacet
facet normal 0.000000 -1.000000 0.000000
outer loop
vertex 12.500000 2.686257 10.000000
vertex 2.500000 2.686257 10.000000
vertex 2.500000 2.686257 0.000000
endloop
endfacet
facet normal -0.000000 -0.000000 -1.000000
outer loop
vertex 2.500000 2.686257 0.000000
vertex 2.500000 7.686257 0.000000
vertex 12.500000 7.686257 0.000000
endloop
endfacet
facet normal 0.000000 0.000000 -1.000000
outer loop
vertex 12.500000 7.686257 0.000000
vertex 12.500000 2.686257 0.000000
vertex 2.500000 2.686257 0.000000
endloop
endfacet
facet normal -0.000000 0.000000 1.000000
outer loop
vertex 12.500000 2.686257 10.000000
vertex 12.500000 7.686257 10.000000
vertex 2.500000 7.686257 10.000000
endloop
endfacet
facet normal 0.000000 -0.000000 1.000000
outer loop
vertex 2.500000 7.686257 10.000000
vertex 2.500000 2.686257 10.000000
vertex 12.500000 2.686257 10.000000
endloop
endfacet
facet normal -1.000000 0.000000 0.000000
outer loop
vertex 2.500000 -0.162336 0.000000
vertex 2.500000 -5.162336 0.000000
vertex 2.500000 -5.162336 10.000000
endloop
endfacet
facet normal -1.000000 0.000000 0.000000
outer loop
vertex 2.500000 -5.162336 10.000000
vertex 2.500000 -0.162336 10.000000
vertex 2.500000 -0.162336 0.000000
endloop
endfacet
facet normal 0.000000 1.000000 -0.000000
outer loop
vertex 2.500000 -0.162336 10.000000
vertex 12.500000 -0.162336 10.000000
vertex 12.500000 -0.162336 0.000000
endloop
endfacet
facet normal -0.000000 1.000000 0.000000
outer loop
vertex 12.500000 -0.162336 0.000000
vertex 2.500000 -0.162336 0.000000
vertex 2.500000 -0.162336 10.000000
endloop
endfacet
facet normal 1.000000 0.000000 0.000000
outer loop
vertex 12.500000 -0.162336 10.000000
vertex 12.500000 -5.162336 10.000000
vertex 12.500000 -5.162336 0.000000
endloop
endfacet
facet normal 1.000000 0.000000 0.000000
outer loop
vertex 12.500000 -5.162336 0.000000
vertex 12.500000 -0.162336 0.000000
vertex 12.500000 -0.162336 10.000000
endloop
endfacet
facet normal -0.000000 -1.000000 -0.000000
outer loop
vertex 2.500000 -5.162336 0.000000
vertex 12.500000 -5.162336 0.000000
vertex 12.500000 -5.162336 10.000000
endloop
endfacet
facet normal 0.000000 -1.000000 0.000000
outer loop
vertex 12.500000 -5.162336 10.000000
vertex 2.500000 -5.162336 10.000000
vertex 2.500000 -5.162336 0.000000
endloop
endfacet
facet normal -0.000000 -0.000000 -1.000000
outer loop
vertex 2.500000 -5.162336 0.000000
vertex 2.500000 -0.162336 0.000000
vertex 12.500000 -0.162336 0.000000
endloop
endfacet
facet normal 0.000000 0.000000 -1.000000
outer loop
vertex 12.500000 -0.162336 0.000000
vertex 12.500000 -5.162336 0.000000
vertex 2.500000 -5.162336 0.000000
endloop
endfacet
facet normal -0.000000 0.000000 1.000000
outer loop
vertex 12.500000 -5.162336 10.000000
vertex 12.500000 -0.162336 10.000000
vertex 2.500000 -0.162336 10.000000
endloop
endfacet
facet normal 0.000000 -0.000000 1.000000
outer loop
vertex 2.500000 -0.162336 10.000000
vertex 2.500000 -5.162336 10.000000
vertex 12.500000 -5.162336 10.000000
endloop
endfacet
endsolid Exported from Blender-2.71 (sub 0)
