solid big
 facet normal -0.707107 0.707107 0.000000
  outer loop
   vertex 106.066002 106.066002 0.000000
   vertex 0.000000 0.000000 0.000000
   vertex 106.066002 106.066002 20.000000
  endloop
 endfacet
 facet normal -0.707107 0.707107 0.000000
  outer loop
   vertex 106.066002 106.066002 20.000000
   vertex 0.000000 0.000000 0.000000
   vertex 0.000000 0.000000 20.000000
  endloop
 endfacet
 facet normal -0.707107 -0.707107 0.000000
  outer loop
   vertex 0.000000 212.132004 0.000000
   vertex 106.066002 106.066002 0.000000
   vertex 0.000000 212.132004 20.000000
  endloop
 endfacet
 facet normal -0.707107 -0.707107 0.000000
  outer loop
   vertex 0.000000 212.132004 20.000000
   vertex 106.066002 106.066002 0.000000
   vertex 106.066002 106.066002 20.000000
  endloop
 endfacet
 facet normal 0.000000 1.000000 0.000000
  outer loop
   vertex 312.131989 212.132004 0.000000
   vertex 0.000000 212.132004 0.000000
   vertex 312.131989 212.132004 20.000000
  endloop
 endfacet
 facet normal 0.000000 1.000000 0.000000
  outer loop
   vertex 312.131989 212.132004 20.000000
   vertex 0.000000 212.132004 0.000000
   vertex 0.000000 212.132004 20.000000
  endloop
 endfacet
 facet normal 0.707107 -0.707107 0.000000
  outer loop
   vertex 100.000000 0.000000 0.000000
   vertex 312.131989 212.132004 0.000000
   vertex 100.000000 0.000000 20.000000
  endloop
 endfacet
 facet normal 0.707107 -0.707107 0.000000
  outer loop
   vertex 100.000000 0.000000 20.000000
   vertex 312.131989 212.132004 0.000000
   vertex 312.131989 212.132004 20.000000
  endloop
 endfacet
 facet normal 0.000000 -1.000000 0.000000
  outer loop
   vertex 0.000000 0.000000 0.000000
   vertex 100.000000 0.000000 0.000000
   vertex 0.000000 0.000000 20.000000
  endloop
 endfacet
 facet normal 0.000000 -1.000000 0.000000
  outer loop
   vertex 0.000000 0.000000 20.000000
   vertex 100.000000 0.000000 0.000000
   vertex 100.000000 0.000000 20.000000
  endloop
 endfacet
 facet normal 0.000000 0.000000 1.000000
  outer loop
   vertex 0.000000 0.000000 20.000000
   vertex 100.000000 0.000000 20.000000
   vertex 106.066002 106.066002 20.000000
  endloop
 endfacet
 facet normal 0.000000 0.000000 1.000000
  outer loop
   vertex 106.066002 106.066002 20.000000
   vertex 100.000000 0.000000 20.000000
   vertex 312.131989 212.132004 20.000000
  endloop
 endfacet
 facet normal 0.000000 0.000000 1.000000
  outer loop
   vertex 0.000000 212.132004 20.000000
   vertex 106.066002 106.066002 20.000000
   vertex 312.131989 212.132004 20.000000
  endloop
 endfacet
 facet normal 0.000000 0.000000 -1.000000
  outer loop
   vertex 0.000000 0.000000 0.000000
   vertex 106.066002 106.066002 0.000000
   vertex 100.000000 0.000000 0.000000
  endloop
 endfacet
 facet normal 0.000000 0.000000 -1.000000
  outer loop
   vertex 100.000000 0.000000 0.000000
   vertex 106.066002 106.066002 0.000000
   vertex 312.131989 212.132004 0.000000
  endloop
 endfacet
 facet normal 0.000000 0.000000 -1.000000
  outer loop
   vertex 312.131989 212.132004 0.000000
   vertex 106.066002 106.066002 0.000000
   vertex 0.000000 212.132004 0.000000
  endloop
 endfacet
endsolid big
