solid Exported from Blender-2.71 (sub 0)
facet normal -0.123896 -0.349508 0.928705
outer loop
vertex -60.000000 -60.000000 2.868923
vertex -20.000000 -60.000000 8.205213
vertex -20.000000 -19.999992 23.258781
endloop
endfacet
facet normal -0.349508 -0.123896 0.928705
outer loop
vertex -20.000000 -19.999992 23.258781
vertex -60.000000 -19.999992 8.205213
vertex -60.000000 -60.000000 2.868923
endloop
endfacet
facet normal 0.000000 -0.352222 0.935916
outer loop
vertex -20.000000 -60.000000 8.205213
vertex 20.000008 -60.000000 8.205213
vertex 20.000008 -19.999992 23.258781
endloop
endfacet
facet normal 0.000000 -0.352222 0.935916
outer loop
vertex 20.000008 -19.999992 23.258781
vertex -20.000000 -19.999992 23.258781
vertex -20.000000 -60.000000 8.205213
endloop
endfacet
facet normal 0.131095 -0.131094 0.982664
outer loop
vertex 20.000008 -60.000000 8.205213
vertex 60.000004 -60.000000 2.868923
vertex 60.000004 -19.999992 8.205213
endloop
endfacet
facet normal 0.332217 -0.332217 0.882759
outer loop
vertex 60.000004 -19.999992 8.205213
vertex 20.000008 -19.999992 23.258781
vertex 20.000008 -60.000000 8.205213
endloop
endfacet
facet normal -0.352222 0.000000 0.935916
outer loop
vertex -60.000000 -19.999992 8.205213
vertex -20.000000 -19.999992 23.258781
vertex -20.000000 20.000008 23.258781
endloop
endfacet
facet normal -0.352222 0.000000 0.935916
outer loop
vertex -20.000000 20.000008 23.258781
vertex -60.000000 20.000008 8.205213
vertex -60.000000 -19.999992 8.205213
endloop
endfacet
facet normal 0.000000 0.000000 1.000000
outer loop
vertex -20.000000 -19.999992 23.258781
vertex 20.000008 -19.999992 23.258781
vertex 20.000008 20.000008 23.258781
endloop
endfacet
facet normal 0.000000 0.000000 1.000000
outer loop
vertex 20.000008 20.000008 23.258781
vertex -20.000000 20.000008 23.258781
vertex -20.000000 -19.999992 23.258781
endloop
endfacet
facet normal 0.352222 0.000000 0.935916
outer loop
vertex 20.000008 -19.999992 23.258781
vertex 60.000004 -19.999992 8.205213
vertex 60.000004 20.000008 8.205213
endloop
endfacet
facet normal 0.352222 -0.000000 0.935916
outer loop
vertex 60.000004 20.000008 8.205213
vertex 20.000008 20.000008 23.258781
vertex 20.000008 -19.999992 23.258781
endloop
endfacet
facet normal -0.332217 0.332217 0.882759
outer loop
vertex -60.000000 20.000008 8.205213
vertex -20.000000 20.000008 23.258781
vertex -20.000000 60.000004 8.205213
endloop
endfacet
facet normal -0.131094 0.131094 0.982664
outer loop
vertex -20.000000 60.000004 8.205213
vertex -60.000000 60.000004 2.868923
vertex -60.000000 20.000008 8.205213
endloop
endfacet
facet normal 0.000000 0.352222 0.935916
outer loop
vertex -20.000000 20.000008 23.258781
vertex 20.000008 20.000008 23.258781
vertex 20.000008 60.000004 8.205213
endloop
endfacet
facet normal -0.000000 0.352222 0.935916
outer loop
vertex 20.000008 60.000004 8.205213
vertex -20.000000 60.000004 8.205213
vertex -20.000000 20.000008 23.258781
endloop
endfacet
facet normal 0.349508 0.123896 0.928705
outer loop
vertex 20.000008 20.000008 23.258781
vertex 60.000004 20.000008 8.205213
vertex 60.000004 60.000004 2.868923
endloop
endfacet
facet normal 0.123896 0.349508 0.928705
outer loop
vertex 60.000004 60.000004 2.868923
vertex 20.000008 60.000004 8.205213
vertex 20.000008 20.000008 23.258781
endloop
endfacet
endsolid Exported from Blender-2.71 (sub 0)
