solid Exported from Blender-2.71 (sub 0)
facet normal -0.476804 0.000000 0.879010
outer loop
vertex 28.802013 -0.065891 60.011246
vertex 55.473675 -0.065891 74.478828
vertex 55.473675 239.979080 74.478828
endloop
endfacet
facet normal -0.476804 0.000000 0.879010
outer loop
vertex 55.473675 239.979080 74.478828
vertex 28.802013 239.979080 60.011246
vertex 28.802013 -0.065891 60.011246
endloop
endfacet
facet normal 0.476804 0.000000 0.879010
outer loop
vertex 2.130348 -0.065891 74.478828
vertex 28.802013 -0.065891 60.011246
vertex 28.802013 239.979080 60.011246
endloop
endfacet
facet normal 0.476804 -0.000000 0.879010
outer loop
vertex 28.802013 239.979080 60.011246
vertex 2.130348 239.979080 74.478828
vertex 2.130348 -0.065891 74.478828
endloop
endfacet
facet normal 0.476804 0.000000 0.879010
outer loop
vertex 55.473675 -0.065891 74.478828
vertex 82.145348 -0.065891 60.011246
vertex 82.145348 239.979080 60.011246
endloop
endfacet
facet normal 0.476804 -0.000000 0.879010
outer loop
vertex 82.145348 239.979080 60.011246
vertex 55.473675 239.979080 74.478828
vertex 55.473675 -0.065891 74.478828
endloop
endfacet
facet normal -0.476804 0.000000 0.879010
outer loop
vertex 82.145348 239.979080 60.011246
vertex 82.145348 -0.065891 60.011246
vertex 108.817009 -0.065891 74.478828
endloop
endfacet
facet normal -0.476804 0.000000 0.879010
outer loop
vertex 108.817009 -0.065891 74.478828
vertex 108.817009 239.979080 74.478828
vertex 82.145348 239.979080 60.011246
endloop
endfacet
facet normal -0.476804 0.000000 0.879010
outer loop
vertex 135.488678 239.979080 60.011246
vertex 135.488678 -0.065891 60.011246
vertex 162.160339 -0.065891 74.478828
endloop
endfacet
facet normal -0.476804 0.000000 0.879010
outer loop
vertex 162.160339 -0.065891 74.478828
vertex 162.160339 239.979080 74.478828
vertex 135.488678 239.979080 60.011246
endloop
endfacet
facet normal 0.476804 -0.000000 0.879010
outer loop
vertex 108.817009 239.979080 74.478828
vertex 108.817009 -0.065891 74.478828
vertex 135.488678 -0.065891 60.011246
endloop
endfacet
facet normal 0.476804 0.000000 0.879010
outer loop
vertex 135.488678 -0.065891 60.011246
vertex 135.488678 239.979080 60.011246
vertex 108.817009 239.979080 74.478828
endloop
endfacet
facet normal 0.476804 -0.000000 0.879010
outer loop
vertex 162.160339 239.979080 74.478828
vertex 162.160339 -0.065891 74.478828
vertex 188.831985 -0.065891 60.011246
endloop
endfacet
facet normal 0.476804 0.000000 0.879010
outer loop
vertex 188.831985 -0.065891 60.011246
vertex 188.831985 239.979080 60.011246
vertex 162.160339 239.979080 74.478828
endloop
endfacet
facet normal -0.476803 0.000000 0.879010
outer loop
vertex 188.831985 239.979080 60.011246
vertex 188.831985 -0.065891 60.011246
vertex 215.503662 -0.065891 74.478828
endloop
endfacet
facet normal -0.476803 0.000000 0.879010
outer loop
vertex 215.503662 -0.065891 74.478828
vertex 215.503662 239.979080 74.478828
vertex 188.831985 239.979080 60.011246
endloop
endfacet
facet normal 0.476804 -0.000000 0.879010
outer loop
vertex 215.503662 239.979080 74.478828
vertex 215.503662 -0.065891 74.478828
vertex 242.175323 -0.065891 60.011246
endloop
endfacet
facet normal 0.476804 0.000000 0.879010
outer loop
vertex 242.175323 -0.065891 60.011246
vertex 242.175323 239.979080 60.011246
vertex 215.503662 239.979080 74.478828
endloop
endfacet
endsolid Exported from Blender-2.71 (sub 0)
