solid Exported from Blender-2.71 (sub 0)
facet normal 0.000000 0.000000 1.000000
outer loop
vertex -1.017045 -0.789913 102.816483
vertex 0.982955 -0.789913 102.816483
vertex 0.982955 1.210088 102.816483
endloop
endfacet
facet normal 0.000000 0.000000 1.000000
outer loop
vertex 0.982955 1.210088 102.816483
vertex -1.017045 1.210088 102.816483
vertex -1.017045 -0.789913 102.816483
endloop
endfacet
facet normal 0.324705 0.000000 0.945815
outer loop
vertex 15.000000 15.000000 98.321106
vertex 100.000000 15.000000 69.139999
vertex 100.000000 100.000000 69.139999
endloop
endfacet
facet normal 0.324705 -0.000000 0.945815
outer loop
vertex 100.000000 100.000000 69.139999
vertex 15.000000 100.000000 98.321106
vertex 15.000000 15.000000 98.321106
endloop
endfacet
facet normal -0.324705 0.000000 0.945815
outer loop
vertex 100.000000 15.000000 69.139999
vertex 185.000000 15.000000 98.321106
vertex 185.000000 100.000000 98.321106
endloop
endfacet
facet normal -0.324705 0.000000 0.945815
outer loop
vertex 185.000000 100.000000 98.321106
vertex 100.000000 100.000000 69.139999
vertex 100.000000 15.000000 69.139999
endloop
endfacet
facet normal 0.324705 0.000000 0.945815
outer loop
vertex 15.000000 100.000000 98.321106
vertex 100.000000 100.000000 69.139999
vertex 100.000000 185.000000 69.139999
endloop
endfacet
facet normal 0.324705 -0.000000 0.945815
outer loop
vertex 100.000000 185.000000 69.139999
vertex 15.000000 185.000000 98.321106
vertex 15.000000 100.000000 98.321106
endloop
endfacet
facet normal -0.324705 0.000000 0.945815
outer loop
vertex 100.000000 100.000000 69.139999
vertex 185.000000 100.000000 98.321106
vertex 185.000000 185.000000 98.321106
endloop
endfacet
facet normal -0.324705 0.000000 0.945815
outer loop
vertex 185.000000 185.000000 98.321106
vertex 100.000000 185.000000 69.139999
vertex 100.000000 100.000000 69.139999
endloop
endfacet
endsolid Exported from Blender-2.71 (sub 0)
