solid hole
 facet normal 0.868357 -0.495939 0.000000
  outer loop
   vertex 102.391800 63.651562 0.000000
   vertex 120.525497 95.402473 0.000000
   vertex 102.391800 63.651562 10.000000
  endloop
 endfacet
 facet normal 0.868357 -0.495939 0.000000
  outer loop
   vertex 102.391800 63.651562 10.000000
   vertex 120.525497 95.402473 0.000000
   vertex 120.525497 95.402473 10.000000
  endloop
 endfacet
 facet normal 0.495940 -0.868357 0.000000
  outer loop
   vertex 120.525497 95.402473 0.000000
   vertex 152.276398 113.536201 0.000000
   vertex 120.525497 95.402473 10.000000
  endloop
 endfacet
 facet normal 0.495940 -0.868357 0.000000
  outer loop
   vertex 120.525497 95.402473 10.000000
   vertex 152.276398 113.536201 0.000000
   vertex 152.276398 113.536201 10.000000
  endloop
 endfacet
 facet normal -1.000000 0.000000 0.000000
  outer loop
   vertex 152.276398 113.536201 0.000000
   vertex 152.276398 63.651562 0.000000
   vertex 152.276398 113.536201 10.000000
  endloop
 endfacet
 facet normal -1.000000 0.000000 0.000000
  outer loop
   vertex 152.276398 113.536201 10.000000
   vertex 152.276398 63.651562 0.000000
   vertex 152.276398 63.651562 10.000000
  endloop
 endfacet
 facet normal 0.000000 1.000000 0.000000
  outer loop
   vertex 152.276398 63.651562 0.000000
   vertex 102.391800 63.651562 0.000000
   vertex 152.276398 63.651562 10.000000
  endloop
 endfacet
 facet normal 0.000000 1.000000 0.000000
  outer loop
   vertex 152.276398 63.651562 10.000000
   vertex 102.391800 63.651562 0.000000
   vertex 102.391800 63.651562 10.000000
  endloop
 endfacet
 facet normal -0.868357 0.495939 0.000000
  outer loop
   vertex 80.113228 135.814697 0.000000
   vertex 7.410634 8.517295 0.000000
   vertex 80.113228 135.814697 10.000000
  endloop
 endfacet
 facet normal -0.868357 0.495939 0.000000
  outer loop
   vertex 80.113228 135.814697 10.000000
   vertex 7.410634 8.517295 0.000000
   vertex 7.410634 8.517295 10.000000
  endloop
 endfacet
 facet normal -0.495940 0.868357 0.000000
  outer loop
   vertex 207.410599 208.517303 0.000000
   vertex 80.113228 135.814697 0.000000
   vertex 207.410599 208.517303 10.000000
  endloop
 endfacet
 facet normal -0.495940 0.868357 0.000000
  outer loop
   vertex 207.410599 208.517303 10.000000
   vertex 80.113228 135.814697 0.000000
   vertex 80.113228 135.814697 10.000000
  endloop
 endfacet
 facet normal 1.000000 0.000000 0.000000
  outer loop
   vertex 207.410599 8.517295 0.000000
   vertex 207.410599 208.517303 0.000000
   vertex 207.410599 8.517295 10.000000
  endloop
 endfacet
 facet normal 1.000000 0.000000 0.000000
  outer loop
   vertex 207.410599 8.517295 10.000000
   vertex 207.410599 208.517303 0.000000
   vertex 207.410599 208.517303 10.000000
  endloop
 endfacet
 facet normal 0.000000 -1.000000 0.000000
  outer loop
   vertex 7.410634 8.517295 0.000000
   vertex 207.410599 8.517295 0.000000
   vertex 7.410634 8.517295 10.000000
  endloop
 endfacet
 facet normal 0.000000 -1.000000 0.000000
  outer loop
   vertex 7.410634 8.517295 10.000000
   vertex 207.410599 8.517295 0.000000
   vertex 207.410599 8.517295 10.000000
  endloop
 endfacet
 facet normal 0.000000 0.000000 1.000000
  outer loop
   vertex 120.525497 95.402473 10.000000
   vertex 80.113228 135.814697 10.000000
   vertex 102.391800 63.651562 10.000000
  endloop
 endfacet
 facet normal 0.000000 0.000000 1.000000
  outer loop
   vertex 120.525497 95.402473 10.000000
   vertex 152.276398 113.536201 10.000000
   vertex 80.113228 135.814697 10.000000
  endloop
 endfacet
 facet normal 0.000000 0.000000 1.000000
  outer loop
   vertex 80.113228 135.814697 10.000000
   vertex 152.276398 113.536201 10.000000
   vertex 207.410599 208.517303 10.000000
  endloop
 endfacet
 facet normal 0.000000 0.000000 1.000000
  outer loop
   vertex 207.410599 208.517303 10.000000
   vertex 152.276398 113.536201 10.000000
   vertex 207.410599 8.517295 10.000000
  endloop
 endfacet
 facet normal 0.000000 0.000000 1.000000
  outer loop
   vertex 207.410599 8.517295 10.000000
   vertex 152.276398 113.536201 10.000000
   vertex 152.276398 63.651562 10.000000
  endloop
 endfacet
 facet normal 0.000000 0.000000 1.000000
  outer loop
   vertex 102.391800 63.651562 10.000000
   vertex 207.410599 8.517295 10.000000
   vertex 152.276398 63.651562 10.000000
  endloop
 endfacet
 facet normal 0.000000 0.000000 1.000000
  outer loop
   vertex 102.391800 63.651562 10.000000
   vertex 7.410634 8.517295 10.000000
   vertex 207.410599 8.517295 10.000000
  endloop
 endfacet
 facet normal 0.000000 0.000000 1.000000
  outer loop
   vertex 102.391800 63.651562 10.000000
   vertex 80.113228 135.814697 10.000000
   vertex 7.410634 8.517295 10.000000
  endloop
 endfacet
 facet normal 0.000000 0.000000 -1.000000
  outer loop
   vertex 152.276398 113.536201 0.000000
   vertex 120.525497 95.402473 0.000000
   vertex 80.113228 135.814697 0.000000
  endloop
 endfacet
 facet normal 0.000000 0.000000 -1.000000
  outer loop
   vertex 207.410599 208.517303 0.000000
   vertex 152.276398 113.536201 0.000000
   vertex 80.113228 135.814697 0.000000
  endloop
 endfacet
 facet normal 0.000000 0.000000 -1.000000
  outer loop
   vertex 207.410599 208.517303 0.000000
   vertex 207.410599 8.517295 0.000000
   vertex 152.276398 113.536201 0.000000
  endloop
 endfacet
 facet normal 0.000000 0.000000 -1.000000
  outer loop
   vertex 152.276398 113.536201 0.000000
   vertex 207.410599 8.517295 0.000000
   vertex 152.276398 63.651562 0.000000
  endloop
 endfacet
 facet normal 0.000000 0.000000 -1.000000
  outer loop
   vertex 152.276398 63.651562 0.000000
   vertex 207.410599 8.517295 0.000000
   vertex 102.391800 63.651562 0.000000
  endloop
 endfacet
 facet normal 0.000000 0.000000 -1.000000
  outer loop
   vertex 102.391800 63.651562 0.000000
   vertex 207.410599 8.517295 0.000000
   vertex 7.410634 8.517295 0.000000
  endloop
 endfacet
 facet normal 0.000000 0.000000 -1.000000
  outer loop
   vertex 80.113228 135.814697 0.000000
   vertex 102.391800 63.651562 0.000000
   vertex 7.410634 8.517295 0.000000
  endloop
 endfacet
 facet normal 0.000000 0.000000 -1.000000
  outer loop
   vertex 80.113228 135.814697 0.000000
   vertex 120.525497 95.402473 0.000000
   vertex 102.391800 63.651562 0.000000
  endloop
 endfacet
endsolid hole
