solid Exported from Blender-2.71 (sub 0)
facet normal -0.885117 0.000000 -0.465369
outer loop
vertex -9.427768 20.499269 17.931290
vertex 0.000000 20.499281 0.000000
vertex -9.427768 0.499269 17.931276
endloop
endfacet
facet normal -0.885117 0.000000 -0.465369
outer loop
vertex -9.427768 0.499269 17.931276
vertex 0.000000 20.499281 0.000000
vertex 0.000000 0.499281 -0.000013
endloop
endfacet
facet normal -0.888370 -0.000000 0.459127
outer loop
vertex 0.000000 20.499258 36.173180
vertex -9.427768 20.499269 17.931290
vertex 0.000000 0.499258 36.173168
endloop
endfacet
facet normal -0.888370 -0.000000 0.459127
outer loop
vertex 0.000000 0.499258 36.173168
vertex -9.427768 20.499269 17.931290
vertex -9.427768 0.499269 17.931276
endloop
endfacet
facet normal 0.000000 -0.000001 1.000000
outer loop
vertex 25.401720 20.499258 36.173180
vertex 0.000000 20.499258 36.173180
vertex 25.401720 0.499258 36.173168
endloop
endfacet
facet normal 0.000000 -0.000001 1.000000
outer loop
vertex 25.401720 0.499258 36.173168
vertex 0.000000 20.499258 36.173180
vertex 0.000000 0.499258 36.173168
endloop
endfacet
facet normal 0.494920 0.000001 -0.868938
outer loop
vertex 16.860310 20.499260 31.308260
vertex 25.401720 20.499258 36.173180
vertex 16.860310 0.499260 31.308247
endloop
endfacet
facet normal 0.494920 0.000000 -0.868938
outer loop
vertex 16.860310 0.499260 31.308247
vertex 25.401720 20.499258 36.173180
vertex 25.401720 0.499258 36.173168
endloop
endfacet
facet normal 1.000000 -0.000000 0.000000
outer loop
vertex 16.860310 20.499269 17.931290
vertex 16.860310 20.499260 31.308260
vertex 16.860310 0.499269 17.931276
endloop
endfacet
facet normal 1.000000 -0.000000 0.000000
outer loop
vertex 16.860310 0.499269 17.931276
vertex 16.860310 20.499260 31.308260
vertex 16.860310 0.499260 31.308247
endloop
endfacet
facet normal 0.806618 -0.000000 0.591073
outer loop
vertex 30.000000 20.499281 0.000000
vertex 16.860310 20.499269 17.931290
vertex 30.000000 0.499281 -0.000013
endloop
endfacet
facet normal 0.806618 -0.000000 0.591073
outer loop
vertex 30.000000 0.499281 -0.000013
vertex 16.860310 20.499269 17.931290
vertex 16.860310 0.499269 17.931276
endloop
endfacet
facet normal 0.000000 0.000001 -1.000000
outer loop
vertex 0.000000 20.499281 0.000000
vertex 30.000000 20.499281 0.000000
vertex 0.000000 0.499281 -0.000013
endloop
endfacet
facet normal 0.000000 0.000001 -1.000000
outer loop
vertex 0.000000 0.499281 -0.000013
vertex 30.000000 20.499281 0.000000
vertex 30.000000 0.499281 -0.000013
endloop
endfacet
facet normal 0.000000 -1.000000 -0.000001
outer loop
vertex 30.000000 0.499281 -0.000013
vertex 16.860310 0.499269 17.931276
vertex 0.000000 0.499281 -0.000013
endloop
endfacet
facet normal 0.000000 -1.000000 -0.000001
outer loop
vertex 0.000000 0.499281 -0.000013
vertex 16.860310 0.499269 17.931276
vertex -9.427768 0.499269 17.931276
endloop
endfacet
facet normal -0.000000 -1.000000 -0.000001
outer loop
vertex -9.427768 0.499269 17.931276
vertex 16.860310 0.499269 17.931276
vertex 16.860310 0.499260 31.308247
endloop
endfacet
facet normal 0.000000 -1.000000 -0.000000
outer loop
vertex 0.000000 0.499258 36.173168
vertex 16.860310 0.499260 31.308247
vertex 25.401720 0.499258 36.173168
endloop
endfacet
facet normal -0.000000 -1.000000 -0.000001
outer loop
vertex 0.000000 0.499258 36.173168
vertex -9.427768 0.499269 17.931276
vertex 16.860310 0.499260 31.308247
endloop
endfacet
facet normal -0.000000 1.000000 0.000001
outer loop
vertex 30.000000 20.499281 0.000000
vertex 0.000000 20.499281 0.000000
vertex 16.860310 20.499269 17.931290
endloop
endfacet
facet normal 0.000000 1.000000 0.000001
outer loop
vertex 16.860310 20.499269 17.931290
vertex 0.000000 20.499281 0.000000
vertex -9.427768 20.499269 17.931290
endloop
endfacet
facet normal 0.000000 1.000000 0.000001
outer loop
vertex 16.860310 20.499260 31.308260
vertex -9.427768 20.499269 17.931290
vertex 0.000000 20.499258 36.173180
endloop
endfacet
facet normal 0.000000 1.000000 0.000000
outer loop
vertex 25.401720 20.499258 36.173180
vertex 16.860310 20.499260 31.308260
vertex 0.000000 20.499258 36.173180
endloop
endfacet
facet normal -0.000000 1.000000 0.000001
outer loop
vertex 16.860310 20.499269 17.931290
vertex -9.427768 20.499269 17.931290
vertex 16.860310 20.499260 31.308260
endloop
endfacet
endsolid Exported from Blender-2.71 (sub 0)
