solid Exported from Blender-2.71 (sub 0)
facet normal -0.000000 -0.000000 -1.000000
outer loop
vertex 10.000000 15.000000 0.000000
vertex 10.000000 20.000000 0.000000
vertex 13.826835 19.238796 0.000000
endloop
endfacet
facet normal 0.000000 0.000000 -1.000000
outer loop
vertex 13.826835 19.238796 0.000000
vertex 11.913418 14.619398 0.000000
vertex 10.000000 15.000000 0.000000
endloop
endfacet
facet normal 0.000000 0.000000 -1.000000
outer loop
vertex 10.000000 20.000000 0.000000
vertex 10.000000 15.000000 0.000000
vertex 8.086585 14.619398 0.000000
endloop
endfacet
facet normal 0.000000 -0.000000 -1.000000
outer loop
vertex 8.086585 14.619398 0.000000
vertex 6.173170 19.238796 0.000000
vertex 10.000000 20.000000 0.000000
endloop
endfacet
facet normal 0.195090 0.980785 0.000000
outer loop
vertex 10.000000 20.000000 0.000000
vertex 10.000000 20.000000 4.000000
vertex 13.826835 19.238796 4.000000
endloop
endfacet
facet normal 0.195090 0.980785 -0.000000
outer loop
vertex 13.826835 19.238796 4.000000
vertex 13.826835 19.238796 0.000000
vertex 10.000000 20.000000 0.000000
endloop
endfacet
facet normal -0.000000 0.000000 -1.000000
outer loop
vertex 11.913418 14.619398 0.000000
vertex 13.826835 19.238796 0.000000
vertex 17.071068 17.071068 0.000000
endloop
endfacet
facet normal 0.000000 0.000000 -1.000000
outer loop
vertex 17.071068 17.071068 0.000000
vertex 13.535534 13.535534 0.000000
vertex 11.913418 14.619398 0.000000
endloop
endfacet
facet normal 0.000000 -0.000000 -1.000000
outer loop
vertex 6.464467 13.535535 0.000000
vertex 2.928935 17.071070 0.000000
vertex 6.173170 19.238796 0.000000
endloop
endfacet
facet normal 0.000000 0.000000 -1.000000
outer loop
vertex 6.173170 19.238796 0.000000
vertex 8.086585 14.619398 0.000000
vertex 6.464467 13.535535 0.000000
endloop
endfacet
facet normal -0.195090 0.980785 0.000000
outer loop
vertex 6.173170 19.238796 0.000000
vertex 6.173170 19.238796 4.000000
vertex 10.000000 20.000000 4.000000
endloop
endfacet
facet normal -0.195090 0.980785 0.000000
outer loop
vertex 10.000000 20.000000 4.000000
vertex 10.000000 20.000000 0.000000
vertex 6.173170 19.238796 0.000000
endloop
endfacet
facet normal 0.000000 0.000000 1.000000
outer loop
vertex 11.913418 14.619398 4.000000
vertex 13.826835 19.238796 4.000000
vertex 10.000000 20.000000 4.000000
endloop
endfacet
facet normal 0.000000 -0.000000 1.000000
outer loop
vertex 10.000000 20.000000 4.000000
vertex 10.000000 15.000000 4.000000
vertex 11.913418 14.619398 4.000000
endloop
endfacet
facet normal 0.555570 0.831469 0.000000
outer loop
vertex 13.826835 19.238796 0.000000
vertex 13.826835 19.238796 4.000000
vertex 17.071068 17.071068 4.000000
endloop
endfacet
facet normal 0.555570 0.831469 -0.000000
outer loop
vertex 17.071068 17.071068 4.000000
vertex 17.071068 17.071068 0.000000
vertex 13.826835 19.238796 0.000000
endloop
endfacet
facet normal -0.000000 0.000000 -1.000000
outer loop
vertex 13.535534 13.535534 0.000000
vertex 17.071068 17.071068 0.000000
vertex 19.238796 13.826834 0.000000
endloop
endfacet
facet normal 0.000000 0.000000 -1.000000
outer loop
vertex 19.238796 13.826834 0.000000
vertex 14.619398 11.913417 0.000000
vertex 13.535534 13.535534 0.000000
endloop
endfacet
facet normal 0.000000 -0.000000 -1.000000
outer loop
vertex 5.380603 11.913418 0.000000
vertex 0.761206 13.826836 0.000000
vertex 2.928935 17.071070 0.000000
endloop
endfacet
facet normal 0.000000 0.000000 -1.000000
outer loop
vertex 2.928935 17.071070 0.000000
vertex 6.464467 13.535535 0.000000
vertex 5.380603 11.913418 0.000000
endloop
endfacet
facet normal -0.555570 0.831470 0.000000
outer loop
vertex 2.928935 17.071070 0.000000
vertex 2.928935 17.071070 4.000000
vertex 6.173170 19.238796 4.000000
endloop
endfacet
facet normal -0.555570 0.831470 0.000000
outer loop
vertex 6.173170 19.238796 4.000000
vertex 6.173170 19.238796 0.000000
vertex 2.928935 17.071070 0.000000
endloop
endfacet
facet normal -0.000000 0.000000 1.000000
outer loop
vertex 10.000000 15.000000 4.000000
vertex 10.000000 20.000000 4.000000
vertex 6.173170 19.238796 4.000000
endloop
endfacet
facet normal 0.000000 0.000000 1.000000
outer loop
vertex 6.173170 19.238796 4.000000
vertex 8.086585 14.619398 4.000000
vertex 10.000000 15.000000 4.000000
endloop
endfacet
facet normal 0.000000 0.000000 1.000000
outer loop
vertex 13.535534 13.535534 4.000000
vertex 17.071068 17.071068 4.000000
vertex 13.826835 19.238796 4.000000
endloop
endfacet
facet normal 0.000000 -0.000000 1.000000
outer loop
vertex 13.826835 19.238796 4.000000
vertex 11.913418 14.619398 4.000000
vertex 13.535534 13.535534 4.000000
endloop
endfacet
facet normal 0.831470 0.555570 0.000000
outer loop
vertex 17.071068 17.071068 0.000000
vertex 17.071068 17.071068 4.000000
vertex 19.238796 13.826834 4.000000
endloop
endfacet
facet normal 0.831470 0.555570 -0.000000
outer loop
vertex 19.238796 13.826834 4.000000
vertex 19.238796 13.826834 0.000000
vertex 17.071068 17.071068 0.000000
endloop
endfacet
facet normal -0.000000 0.000000 -1.000000
outer loop
vertex 14.619398 11.913417 0.000000
vertex 19.238796 13.826834 0.000000
vertex 20.000000 10.000000 0.000000
endloop
endfacet
facet normal 0.000000 0.000000 -1.000000
outer loop
vertex 20.000000 10.000000 0.000000
vertex 15.000000 10.000000 0.000000
vertex 14.619398 11.913417 0.000000
endloop
endfacet
facet normal 0.000000 -0.000000 -1.000000
outer loop
vertex 5.000000 10.000000 0.000000
vertex 0.000000 10.000000 0.000000
vertex 0.761206 13.826836 0.000000
endloop
endfacet
facet normal 0.000000 0.000000 -1.000000
outer loop
vertex 0.761206 13.826836 0.000000
vertex 5.380603 11.913418 0.000000
vertex 5.000000 10.000000 0.000000
endloop
endfacet
facet normal -0.831469 0.555570 0.000000
outer loop
vertex 0.761206 13.826836 0.000000
vertex 0.761206 13.826836 4.000000
vertex 2.928935 17.071070 4.000000
endloop
endfacet
facet normal -0.831469 0.555570 0.000000
outer loop
vertex 2.928935 17.071070 4.000000
vertex 2.928935 17.071070 0.000000
vertex 0.761206 13.826836 0.000000
endloop
endfacet
facet normal -0.000000 0.000000 1.000000
outer loop
vertex 8.086585 14.619398 4.000000
vertex 6.173170 19.238796 4.000000
vertex 2.928935 17.071070 4.000000
endloop
endfacet
facet normal 0.000000 0.000000 1.000000
outer loop
vertex 2.928935 17.071070 4.000000
vertex 6.464467 13.535535 4.000000
vertex 8.086585 14.619398 4.000000
endloop
endfacet
facet normal 0.000000 0.000000 1.000000
outer loop
vertex 14.619398 11.913417 4.000000
vertex 19.238796 13.826834 4.000000
vertex 17.071068 17.071068 4.000000
endloop
endfacet
facet normal 0.000000 -0.000000 1.000000
outer loop
vertex 17.071068 17.071068 4.000000
vertex 13.535534 13.535534 4.000000
vertex 14.619398 11.913417 4.000000
endloop
endfacet
facet normal 0.980785 0.195090 0.000000
outer loop
vertex 19.238796 13.826834 0.000000
vertex 19.238796 13.826834 4.000000
vertex 20.000000 10.000000 4.000000
endloop
endfacet
facet normal 0.980785 0.195090 -0.000000
outer loop
vertex 20.000000 10.000000 4.000000
vertex 20.000000 10.000000 0.000000
vertex 19.238796 13.826834 0.000000
endloop
endfacet
facet normal 0.000000 0.000000 -1.000000
outer loop
vertex 15.000000 10.000000 0.000000
vertex 20.000000 10.000000 0.000000
vertex 19.238796 6.173165 0.000000
endloop
endfacet
facet normal 0.000000 -0.000000 -1.000000
outer loop
vertex 19.238796 6.173165 0.000000
vertex 14.619398 8.086582 0.000000
vertex 15.000000 10.000000 0.000000
endloop
endfacet
facet normal 0.000000 0.000000 -1.000000
outer loop
vertex 5.380602 8.086582 0.000000
vertex 0.761205 6.173164 0.000000
vertex 0.000000 10.000000 0.000000
endloop
endfacet
facet normal 0.000000 0.000000 -1.000000
outer loop
vertex 0.000000 10.000000 0.000000
vertex 5.000000 10.000000 0.000000
vertex 5.380602 8.086582 0.000000
endloop
endfacet
facet normal -0.980785 0.195091 0.000000
outer loop
vertex 0.000000 10.000000 0.000000
vertex 0.000000 10.000000 4.000000
vertex 0.761206 13.826836 4.000000
endloop
endfacet
facet normal -0.980785 0.195091 0.000000
outer loop
vertex 0.761206 13.826836 4.000000
vertex 0.761206 13.826836 0.000000
vertex 0.000000 10.000000 0.000000
endloop
endfacet
facet normal -0.000000 0.000000 1.000000
outer loop
vertex 6.464467 13.535535 4.000000
vertex 2.928935 17.071070 4.000000
vertex 0.761206 13.826836 4.000000
endloop
endfacet
facet normal 0.000000 0.000000 1.000000
outer loop
vertex 0.761206 13.826836 4.000000
vertex 5.380603 11.913418 4.000000
vertex 6.464467 13.535535 4.000000
endloop
endfacet
facet normal 0.000000 0.000000 1.000000
outer loop
vertex 15.000000 10.000000 4.000000
vertex 20.000000 10.000000 4.000000
vertex 19.238796 13.826834 4.000000
endloop
endfacet
facet normal 0.000000 -0.000000 1.000000
outer loop
vertex 19.238796 13.826834 4.000000
vertex 14.619398 11.913417 4.000000
vertex 15.000000 10.000000 4.000000
endloop
endfacet
facet normal 0.980785 -0.195090 0.000000
outer loop
vertex 20.000000 10.000000 0.000000
vertex 20.000000 10.000000 4.000000
vertex 19.238796 6.173165 4.000000
endloop
endfacet
facet normal 0.980785 -0.195090 0.000000
outer loop
vertex 19.238796 6.173165 4.000000
vertex 19.238796 6.173165 0.000000
vertex 20.000000 10.000000 0.000000
endloop
endfacet
facet normal 0.000000 0.000000 -1.000000
outer loop
vertex 14.619398 8.086582 0.000000
vertex 19.238796 6.173165 0.000000
vertex 17.071068 2.928932 0.000000
endloop
endfacet
facet normal 0.000000 -0.000000 -1.000000
outer loop
vertex 17.071068 2.928932 0.000000
vertex 13.535534 6.464466 0.000000
vertex 14.619398 8.086582 0.000000
endloop
endfacet
facet normal 0.000000 0.000000 -1.000000
outer loop
vertex 6.464467 6.464465 0.000000
vertex 2.928934 2.928930 0.000000
vertex 0.761205 6.173164 0.000000
endloop
endfacet
facet normal -0.000000 0.000000 -1.000000
outer loop
vertex 0.761205 6.173164 0.000000
vertex 5.380602 8.086582 0.000000
vertex 6.464467 6.464465 0.000000
endloop
endfacet
facet normal -0.980785 -0.195090 -0.000000
outer loop
vertex 0.761205 6.173164 0.000000
vertex 0.761205 6.173164 4.000000
vertex 0.000000 10.000000 4.000000
endloop
endfacet
facet normal -0.980785 -0.195090 0.000000
outer loop
vertex 0.000000 10.000000 4.000000
vertex 0.000000 10.000000 0.000000
vertex 0.761205 6.173164 0.000000
endloop
endfacet
facet normal -0.000000 0.000000 1.000000
outer loop
vertex 5.380603 11.913418 4.000000
vertex 0.761206 13.826836 4.000000
vertex 0.000000 10.000000 4.000000
endloop
endfacet
facet normal 0.000000 0.000000 1.000000
outer loop
vertex 0.000000 10.000000 4.000000
vertex 5.000000 10.000000 4.000000
vertex 5.380603 11.913418 4.000000
endloop
endfacet
facet normal 0.000000 0.000000 1.000000
outer loop
vertex 14.619398 8.086582 4.000000
vertex 19.238796 6.173165 4.000000
vertex 20.000000 10.000000 4.000000
endloop
endfacet
facet normal 0.000000 0.000000 1.000000
outer loop
vertex 20.000000 10.000000 4.000000
vertex 15.000000 10.000000 4.000000
vertex 14.619398 8.086582 4.000000
endloop
endfacet
facet normal 0.831469 -0.555570 0.000000
outer loop
vertex 19.238796 6.173165 0.000000
vertex 19.238796 6.173165 4.000000
vertex 17.071068 2.928932 4.000000
endloop
endfacet
facet normal 0.831469 -0.555570 0.000000
outer loop
vertex 17.071068 2.928932 4.000000
vertex 17.071068 2.928932 0.000000
vertex 19.238796 6.173165 0.000000
endloop
endfacet
facet normal 0.000000 0.000000 -1.000000
outer loop
vertex 13.535534 6.464466 0.000000
vertex 17.071068 2.928932 0.000000
vertex 13.826835 0.761205 0.000000
endloop
endfacet
facet normal 0.000000 -0.000000 -1.000000
outer loop
vertex 13.826835 0.761205 0.000000
vertex 11.913418 5.380602 0.000000
vertex 13.535534 6.464466 0.000000
endloop
endfacet
facet normal 0.000000 0.000000 -1.000000
outer loop
vertex 8.086584 5.380602 0.000000
vertex 6.173168 0.761204 0.000000
vertex 2.928934 2.928930 0.000000
endloop
endfacet
facet normal -0.000000 0.000000 -1.000000
outer loop
vertex 2.928934 2.928930 0.000000
vertex 6.464467 6.464465 0.000000
vertex 8.086584 5.380602 0.000000
endloop
endfacet
facet normal -0.831469 -0.555570 -0.000000
outer loop
vertex 2.928934 2.928930 0.000000
vertex 2.928934 2.928930 4.000000
vertex 0.761205 6.173164 4.000000
endloop
endfacet
facet normal -0.831469 -0.555570 0.000000
outer loop
vertex 0.761205 6.173164 4.000000
vertex 0.761205 6.173164 0.000000
vertex 2.928934 2.928930 0.000000
endloop
endfacet
facet normal 0.000000 -0.000000 1.000000
outer loop
vertex 5.000000 10.000000 4.000000
vertex 0.000000 10.000000 4.000000
vertex 0.761205 6.173164 4.000000
endloop
endfacet
facet normal 0.000000 0.000000 1.000000
outer loop
vertex 0.761205 6.173164 4.000000
vertex 5.380602 8.086582 4.000000
vertex 5.000000 10.000000 4.000000
endloop
endfacet
facet normal 0.000000 0.000000 1.000000
outer loop
vertex 13.535534 6.464466 4.000000
vertex 17.071068 2.928932 4.000000
vertex 19.238796 6.173165 4.000000
endloop
endfacet
facet normal -0.000000 0.000000 1.000000
outer loop
vertex 19.238796 6.173165 4.000000
vertex 14.619398 8.086582 4.000000
vertex 13.535534 6.464466 4.000000
endloop
endfacet
facet normal 0.555570 -0.831470 0.000000
outer loop
vertex 17.071068 2.928932 0.000000
vertex 17.071068 2.928932 4.000000
vertex 13.826835 0.761205 4.000000
endloop
endfacet
facet normal 0.555570 -0.831470 0.000000
outer loop
vertex 13.826835 0.761205 4.000000
vertex 13.826835 0.761205 0.000000
vertex 17.071068 2.928932 0.000000
endloop
endfacet
facet normal 0.000000 0.000000 -1.000000
outer loop
vertex 11.913418 5.380602 0.000000
vertex 13.826835 0.761205 0.000000
vertex 10.000002 0.000000 0.000000
endloop
endfacet
facet normal 0.000000 -0.000000 -1.000000
outer loop
vertex 10.000002 0.000000 0.000000
vertex 10.000001 5.000000 0.000000
vertex 11.913418 5.380602 0.000000
endloop
endfacet
facet normal 0.000000 0.000000 -1.000000
outer loop
vertex 10.000001 5.000000 0.000000
vertex 10.000002 0.000000 0.000000
vertex 6.173168 0.761204 0.000000
endloop
endfacet
facet normal -0.000000 0.000000 -1.000000
outer loop
vertex 6.173168 0.761204 0.000000
vertex 8.086584 5.380602 0.000000
vertex 10.000001 5.000000 0.000000
endloop
endfacet
facet normal -0.555570 -0.831470 -0.000000
outer loop
vertex 6.173168 0.761204 0.000000
vertex 6.173168 0.761204 4.000000
vertex 2.928934 2.928930 4.000000
endloop
endfacet
facet normal -0.555570 -0.831470 0.000000
outer loop
vertex 2.928934 2.928930 4.000000
vertex 2.928934 2.928930 0.000000
vertex 6.173168 0.761204 0.000000
endloop
endfacet
facet normal 0.000000 -0.000000 1.000000
outer loop
vertex 5.380602 8.086582 4.000000
vertex 0.761205 6.173164 4.000000
vertex 2.928934 2.928930 4.000000
endloop
endfacet
facet normal 0.000000 0.000000 1.000000
outer loop
vertex 2.928934 2.928930 4.000000
vertex 6.464467 6.464465 4.000000
vertex 5.380602 8.086582 4.000000
endloop
endfacet
facet normal 0.000000 0.000000 1.000000
outer loop
vertex 11.913418 5.380602 4.000000
vertex 13.826835 0.761205 4.000000
vertex 17.071068 2.928932 4.000000
endloop
endfacet
facet normal -0.000000 0.000000 1.000000
outer loop
vertex 17.071068 2.928932 4.000000
vertex 13.535534 6.464466 4.000000
vertex 11.913418 5.380602 4.000000
endloop
endfacet
facet normal 0.195090 -0.980785 0.000000
outer loop
vertex 13.826835 0.761205 0.000000
vertex 13.826835 0.761205 4.000000
vertex 10.000002 0.000000 4.000000
endloop
endfacet
facet normal 0.195090 -0.980785 0.000000
outer loop
vertex 10.000002 0.000000 4.000000
vertex 10.000002 0.000000 0.000000
vertex 13.826835 0.761205 0.000000
endloop
endfacet
facet normal -0.195090 -0.980785 -0.000000
outer loop
vertex 10.000002 0.000000 0.000000
vertex 10.000002 0.000000 4.000000
vertex 6.173168 0.761204 4.000000
endloop
endfacet
facet normal -0.195090 -0.980785 0.000000
outer loop
vertex 6.173168 0.761204 4.000000
vertex 6.173168 0.761204 0.000000
vertex 10.000002 0.000000 0.000000
endloop
endfacet
facet normal 0.000000 -0.000000 1.000000
outer loop
vertex 6.464467 6.464465 4.000000
vertex 2.928934 2.928930 4.000000
vertex 6.173168 0.761204 4.000000
endloop
endfacet
facet normal 0.000000 0.000000 1.000000
outer loop
vertex 6.173168 0.761204 4.000000
vertex 8.086584 5.380602 4.000000
vertex 6.464467 6.464465 4.000000
endloop
endfacet
facet normal 0.000000 0.000000 1.000000
outer loop
vertex 10.000001 5.000000 4.000000
vertex 10.000002 0.000000 4.000000
vertex 13.826835 0.761205 4.000000
endloop
endfacet
facet normal -0.000000 0.000000 1.000000
outer loop
vertex 13.826835 0.761205 4.000000
vertex 11.913418 5.380602 4.000000
vertex 10.000001 5.000000 4.000000
endloop
endfacet
facet normal 0.000000 -0.000000 1.000000
outer loop
vertex 8.086584 5.380602 4.000000
vertex 6.173168 0.761204 4.000000
vertex 10.000002 0.000000 4.000000
endloop
endfacet
facet normal 0.000000 0.000000 1.000000
outer loop
vertex 10.000002 0.000000 4.000000
vertex 10.000001 5.000000 4.000000
vertex 8.086584 5.380602 4.000000
endloop
endfacet
facet normal -0.195090 -0.980785 -0.000000
outer loop
vertex 10.000000 15.000000 0.000000
vertex 11.913418 14.619398 0.000000
vertex 11.913418 14.619398 4.000000
endloop
endfacet
facet normal -0.195090 -0.980785 0.000000
outer loop
vertex 11.913418 14.619398 4.000000
vertex 10.000000 15.000000 4.000000
vertex 10.000000 15.000000 0.000000
endloop
endfacet
facet normal 0.195090 -0.980785 0.000000
outer loop
vertex 8.086585 14.619398 0.000000
vertex 10.000000 15.000000 0.000000
vertex 10.000000 15.000000 4.000000
endloop
endfacet
facet normal 0.195090 -0.980785 0.000000
outer loop
vertex 10.000000 15.000000 4.000000
vertex 8.086585 14.619398 4.000000
vertex 8.086585 14.619398 0.000000
endloop
endfacet
facet normal -0.555571 -0.831469 -0.000000
outer loop
vertex 11.913418 14.619398 0.000000
vertex 13.535534 13.535534 0.000000
vertex 13.535534 13.535534 4.000000
endloop
endfacet
facet normal -0.555571 -0.831469 0.000000
outer loop
vertex 13.535534 13.535534 4.000000
vertex 11.913418 14.619398 4.000000
vertex 11.913418 14.619398 0.000000
endloop
endfacet
facet normal 0.555570 -0.831470 0.000000
outer loop
vertex 6.464467 13.535535 0.000000
vertex 8.086585 14.619398 0.000000
vertex 8.086585 14.619398 4.000000
endloop
endfacet
facet normal 0.555570 -0.831470 0.000000
outer loop
vertex 8.086585 14.619398 4.000000
vertex 6.464467 13.535535 4.000000
vertex 6.464467 13.535535 0.000000
endloop
endfacet
facet normal -0.831470 -0.555570 -0.000000
outer loop
vertex 13.535534 13.535534 0.000000
vertex 14.619398 11.913417 0.000000
vertex 14.619398 11.913417 4.000000
endloop
endfacet
facet normal -0.831470 -0.555570 0.000000
outer loop
vertex 14.619398 11.913417 4.000000
vertex 13.535534 13.535534 4.000000
vertex 13.535534 13.535534 0.000000
endloop
endfacet
facet normal 0.831470 -0.555570 0.000000
outer loop
vertex 5.380603 11.913418 0.000000
vertex 6.464467 13.535535 0.000000
vertex 6.464467 13.535535 4.000000
endloop
endfacet
facet normal 0.831470 -0.555570 0.000000
outer loop
vertex 6.464467 13.535535 4.000000
vertex 5.380603 11.913418 4.000000
vertex 5.380603 11.913418 0.000000
endloop
endfacet
facet normal -0.980785 -0.195090 -0.000000
outer loop
vertex 14.619398 11.913417 0.000000
vertex 15.000000 10.000000 0.000000
vertex 15.000000 10.000000 4.000000
endloop
endfacet
facet normal -0.980785 -0.195090 0.000000
outer loop
vertex 15.000000 10.000000 4.000000
vertex 14.619398 11.913417 4.000000
vertex 14.619398 11.913417 0.000000
endloop
endfacet
facet normal 0.980785 -0.195091 0.000000
outer loop
vertex 5.000000 10.000000 0.000000
vertex 5.380603 11.913418 0.000000
vertex 5.380603 11.913418 4.000000
endloop
endfacet
facet normal 0.980785 -0.195091 0.000000
outer loop
vertex 5.380603 11.913418 4.000000
vertex 5.000000 10.000000 4.000000
vertex 5.000000 10.000000 0.000000
endloop
endfacet
facet normal -0.980785 0.195090 0.000000
outer loop
vertex 15.000000 10.000000 0.000000
vertex 14.619398 8.086582 0.000000
vertex 14.619398 8.086582 4.000000
endloop
endfacet
facet normal -0.980785 0.195090 0.000000
outer loop
vertex 14.619398 8.086582 4.000000
vertex 15.000000 10.000000 4.000000
vertex 15.000000 10.000000 0.000000
endloop
endfacet
facet normal 0.980785 0.195090 0.000000
outer loop
vertex 5.380602 8.086582 0.000000
vertex 5.000000 10.000000 0.000000
vertex 5.000000 10.000000 4.000000
endloop
endfacet
facet normal 0.980785 0.195090 -0.000000
outer loop
vertex 5.000000 10.000000 4.000000
vertex 5.380602 8.086582 4.000000
vertex 5.380602 8.086582 0.000000
endloop
endfacet
facet normal -0.831469 0.555571 0.000000
outer loop
vertex 14.619398 8.086582 0.000000
vertex 13.535534 6.464466 0.000000
vertex 13.535534 6.464466 4.000000
endloop
endfacet
facet normal -0.831469 0.555571 0.000000
outer loop
vertex 13.535534 6.464466 4.000000
vertex 14.619398 8.086582 4.000000
vertex 14.619398 8.086582 0.000000
endloop
endfacet
facet normal 0.831469 0.555570 0.000000
outer loop
vertex 6.464467 6.464465 0.000000
vertex 5.380602 8.086582 0.000000
vertex 5.380602 8.086582 4.000000
endloop
endfacet
facet normal 0.831469 0.555570 -0.000000
outer loop
vertex 5.380602 8.086582 4.000000
vertex 6.464467 6.464465 4.000000
vertex 6.464467 6.464465 0.000000
endloop
endfacet
facet normal -0.555570 0.831470 0.000000
outer loop
vertex 13.535534 6.464466 0.000000
vertex 11.913418 5.380602 0.000000
vertex 11.913418 5.380602 4.000000
endloop
endfacet
facet normal -0.555570 0.831470 0.000000
outer loop
vertex 11.913418 5.380602 4.000000
vertex 13.535534 6.464466 4.000000
vertex 13.535534 6.464466 0.000000
endloop
endfacet
facet normal 0.555570 0.831470 0.000000
outer loop
vertex 8.086584 5.380602 0.000000
vertex 6.464467 6.464465 0.000000
vertex 6.464467 6.464465 4.000000
endloop
endfacet
facet normal 0.555570 0.831470 -0.000000
outer loop
vertex 6.464467 6.464465 4.000000
vertex 8.086584 5.380602 4.000000
vertex 8.086584 5.380602 0.000000
endloop
endfacet
facet normal -0.195090 0.980785 0.000000
outer loop
vertex 11.913418 5.380602 0.000000
vertex 10.000001 5.000000 0.000000
vertex 10.000001 5.000000 4.000000
endloop
endfacet
facet normal -0.195090 0.980785 0.000000
outer loop
vertex 10.000001 5.000000 4.000000
vertex 11.913418 5.380602 4.000000
vertex 11.913418 5.380602 0.000000
endloop
endfacet
facet normal 0.195090 0.980785 0.000000
outer loop
vertex 10.000001 5.000000 0.000000
vertex 8.086584 5.380602 0.000000
vertex 8.086584 5.380602 4.000000
endloop
endfacet
facet normal 0.195090 0.980785 -0.000000
outer loop
vertex 8.086584 5.380602 4.000000
vertex 10.000001 5.000000 4.000000
vertex 10.000001 5.000000 0.000000
endloop
endfacet
endsolid Exported from Blender-2.71 (sub 0)
