solid Exported from Blender-2.71 (sub 0)
facet normal -0.866025 -0.500000 -0.000000
outer loop
vertex -23.660255 8.660250 0.000000
vertex -13.660250 -8.660255 0.000000
vertex -13.660250 -8.660255 20.000000
endloop
endfacet
facet normal -0.866025 -0.500000 0.000000
outer loop
vertex -13.660250 -8.660255 20.000000
vertex -23.660255 8.660250 20.000000
vertex -23.660255 8.660250 0.000000
endloop
endfacet
facet normal -0.500000 0.866025 0.000000
outer loop
vertex -23.660255 8.660250 20.000000
vertex -6.339750 18.660255 20.000000
vertex -6.339750 18.660255 0.000000
endloop
endfacet
facet normal -0.500000 0.866025 0.000000
outer loop
vertex -6.339750 18.660255 0.000000
vertex -23.660255 8.660250 0.000000
vertex -23.660255 8.660250 20.000000
endloop
endfacet
facet normal 0.866025 0.500000 -0.000000
outer loop
vertex -6.339750 18.660255 20.000000
vertex 3.660255 1.339750 20.000000
vertex 3.660255 1.339750 0.000000
endloop
endfacet
facet normal 0.866025 0.500000 0.000000
outer loop
vertex 3.660255 1.339750 0.000000
vertex -6.339750 18.660255 0.000000
vertex -6.339750 18.660255 20.000000
endloop
endfacet
facet normal 0.500000 -0.866025 0.000000
outer loop
vertex -13.660250 -8.660255 0.000000
vertex 3.660255 1.339750 0.000000
vertex 3.660255 1.339750 20.000000
endloop
endfacet
facet normal 0.500000 -0.866025 0.000000
outer loop
vertex 3.660255 1.339750 20.000000
vertex -13.660250 -8.660255 20.000000
vertex -13.660250 -8.660255 0.000000
endloop
endfacet
facet normal 0.000000 -0.000000 -1.000000
outer loop
vertex -13.660250 -8.660255 0.000000
vertex -23.660255 8.660250 0.000000
vertex -6.339750 18.660255 0.000000
endloop
endfacet
facet normal 0.000000 0.000000 -1.000000
outer loop
vertex -6.339750 18.660255 0.000000
vertex 3.660255 1.339750 0.000000
vertex -13.660250 -8.660255 0.000000
endloop
endfacet
facet normal -0.000000 0.000000 1.000000
outer loop
vertex 3.660255 1.339750 20.000000
vertex -6.339750 18.660255 20.000000
vertex -23.660255 8.660250 20.000000
endloop
endfacet
facet normal 0.000000 0.000000 1.000000
outer loop
vertex -23.660255 8.660250 20.000000
vertex -13.660250 -8.660255 20.000000
vertex 3.660255 1.339750 20.000000
endloop
endfacet
endsolid Exported from Blender-2.71 (sub 0)
