solid squarering
 facet normal 1.000000 0.000000 0.000000
  outer loop
   vertex 7.500000 7.500000 0.000000
   vertex 7.500000 12.500000 0.000000
   vertex 7.500000 7.500000 8.000000
  endloop
 endfacet
 facet normal 1.000000 0.000000 0.000000
  outer loop
   vertex 7.500000 7.500000 8.000000
   vertex 7.500000 12.500000 0.000000
   vertex 7.500000 12.500000 8.000000
  endloop
 endfacet
 facet normal 0.000000 -1.000000 0.000000
  outer loop
   vertex 7.500000 12.500000 0.000000
   vertex 12.500000 12.500000 0.000000
   vertex 7.500000 12.500000 8.000000
  endloop
 endfacet
 facet normal 0.000000 -1.000000 0.000000
  outer loop
   vertex 7.500000 12.500000 8.000000
   vertex 12.500000 12.500000 0.000000
   vertex 12.500000 12.500000 8.000000
  endloop
 endfacet
 facet normal -1.000000 0.000000 0.000000
  outer loop
   vertex 12.500000 12.500000 0.000000
   vertex 12.500000 7.500000 0.000000
   vertex 12.500000 12.500000 8.000000
  endloop
 endfacet
 facet normal -1.000000 0.000000 0.000000
  outer loop
   vertex 12.500000 12.500000 8.000000
   vertex 12.500000 7.500000 0.000000
   vertex 12.500000 7.500000 8.000000
  endloop
 endfacet
 facet normal 0.000000 1.000000 0.000000
  outer loop
   vertex 12.500000 7.500000 0.000000
   vertex 7.500000 7.500000 0.000000
   vertex 12.500000 7.500000 8.000000
  endloop
 endfacet
 facet normal 0.000000 1.000000 0.000000
  outer loop
   vertex 12.500000 7.500000 8.000000
   vertex 7.500000 7.500000 0.000000
   vertex 7.500000 7.500000 8.000000
  endloop
 endfacet
 facet normal -1.000000 0.000000 0.000000
  outer loop
   vertex 0.000000 20.000000 0.000000
   vertex 0.000000 0.000000 0.000000
   vertex 0.000000 20.000000 8.000000
  endloop
 endfacet
 facet normal -1.000000 0.000000 0.000000
  outer loop
   vertex 0.000000 20.000000 8.000000
   vertex 0.000000 0.000000 0.000000
   vertex 0.000000 0.000000 8.000000
  endloop
 endfacet
 facet normal 0.000000 1.000000 0.000000
  outer loop
   vertex 20.000000 20.000000 0.000000
   vertex 0.000000 20.000000 0.000000
   vertex 20.000000 20.000000 8.000000
  endloop
 endfacet
 facet normal 0.000000 1.000000 0.000000
  outer loop
   vertex 20.000000 20.000000 8.000000
   vertex 0.000000 20.000000 0.000000
   vertex 0.000000 20.000000 8.000000
  endloop
 endfacet
 facet normal 1.000000 0.000000 0.000000
  outer loop
   vertex 20.000000 0.000000 0.000000
   vertex 20.000000 20.000000 0.000000
   vertex 20.000000 0.000000 8.000000
  endloop
 endfacet
 facet normal 1.000000 0.000000 0.000000
  outer loop
   vertex 20.000000 0.000000 8.000000
   vertex 20.000000 20.000000 0.000000
   vertex 20.000000 20.000000 8.000000
  endloop
 endfacet
 facet normal 0.000000 -1.000000 0.000000
  outer loop
   vertex 0.000000 0.000000 0.000000
   vertex 20.000000 0.000000 0.000000
   vertex 0.000000 0.000000 8.000000
  endloop
 endfacet
 facet normal 0.000000 -1.000000 0.000000
  outer loop
   vertex 0.000000 0.000000 8.000000
   vertex 20.000000 0.000000 0.000000
   vertex 20.000000 0.000000 8.000000
  endloop
 endfacet
 facet normal 0.000000 0.000000 1.000000
  outer loop
   vertex 7.500000 12.500000 8.000000
   vertex 0.000000 0.000000 8.000000
   vertex 7.500000 7.500000 8.000000
  endloop
 endfacet
 facet normal 0.000000 0.000000 1.000000
  outer loop
   vertex 7.500000 12.500000 8.000000
   vertex 0.000000 20.000000 8.000000
   vertex 0.000000 0.000000 8.000000
  endloop
 endfacet
 facet normal 0.000000 0.000000 1.000000
  outer loop
   vertex 7.500000 12.500000 8.000000
   vertex 12.500000 12.500000 8.000000
   vertex 0.000000 20.000000 8.000000
  endloop
 endfacet
 facet normal 0.000000 0.000000 1.000000
  outer loop
   vertex 0.000000 20.000000 8.000000
   vertex 12.500000 12.500000 8.000000
   vertex 20.000000 20.000000 8.000000
  endloop
 endfacet
 facet normal 0.000000 0.000000 1.000000
  outer loop
   vertex 20.000000 20.000000 8.000000
   vertex 12.500000 12.500000 8.000000
   vertex 20.000000 0.000000 8.000000
  endloop
 endfacet
 facet normal 0.000000 0.000000 1.000000
  outer loop
   vertex 20.000000 0.000000 8.000000
   vertex 12.500000 12.500000 8.000000
   vertex 12.500000 7.500000 8.000000
  endloop
 endfacet
 facet normal 0.000000 0.000000 1.000000
  outer loop
   vertex 7.500000 7.500000 8.000000
   vertex 20.000000 0.000000 8.000000
   vertex 12.500000 7.500000 8.000000
  endloop
 endfacet
 facet normal 0.000000 0.000000 1.000000
  outer loop
   vertex 7.500000 7.500000 8.000000
   vertex 0.000000 0.000000 8.000000
   vertex 20.000000 0.000000 8.000000
  endloop
 endfacet
 facet normal 0.000000 0.000000 -1.000000
  outer loop
   vertex 7.500000 7.500000 0.000000
   vertex 0.000000 0.000000 0.000000
   vertex 7.500000 12.500000 0.000000
  endloop
 endfacet
 facet normal 0.000000 0.000000 -1.000000
  outer loop
   vertex 7.500000 7.500000 0.000000
   vertex 12.500000 7.500000 0.000000
   vertex 0.000000 0.000000 0.000000
  endloop
 endfacet
 facet normal 0.000000 0.000000 -1.000000
  outer loop
   vertex 0.000000 0.000000 0.000000
   vertex 12.500000 7.500000 0.000000
   vertex 20.000000 0.000000 0.000000
  endloop
 endfacet
 facet normal 0.000000 0.000000 -1.000000
  outer loop
   vertex 20.000000 0.000000 0.000000
   vertex 12.500000 7.500000 0.000000
   vertex 12.500000 12.500000 0.000000
  endloop
 endfacet
 facet normal 0.000000 0.000000 -1.000000
  outer loop
   vertex 20.000000 20.000000 0.000000
   vertex 12.500000 12.500000 0.000000
   vertex 7.500000 12.500000 0.000000
  endloop
 endfacet
 facet normal 0.000000 0.000000 -1.000000
  outer loop
   vertex 0.000000 20.000000 0.000000
   vertex 7.500000 12.500000 0.000000
   vertex 0.000000 0.000000 0.000000
  endloop
 endfacet
 facet normal 0.000000 0.000000 -1.000000
  outer loop
   vertex 0.000000 20.000000 0.000000
   vertex 20.000000 20.000000 0.000000
   vertex 7.500000 12.500000 0.000000
  endloop
 endfacet
 facet normal 0.000000 0.000000 -1.000000
  outer loop
   vertex 20.000000 0.000000 0.000000
   vertex 12.500000 12.500000 0.000000
   vertex 20.000000 20.000000 0.000000
  endloop
 endfacet
endsolid squarering
