solid Exported from Blender-2.71 (sub 0)
facet normal -0.447214 0.000000 0.894427
outer loop
vertex -21.480402 -6.750000 3.000000
vertex 8.519598 -6.750000 18.000000
vertex 8.519598 53.250000 18.000000
endloop
endfacet
facet normal -0.447214 0.000000 0.894427
outer loop
vertex 8.519598 53.250000 18.000000
vertex -21.480402 53.250000 3.000000
vertex -21.480402 -6.750000 3.000000
endloop
endfacet
facet normal 0.447214 0.000000 0.894427
outer loop
vertex 8.519598 -6.750000 18.000000
vertex 38.519600 -6.750000 3.000000
vertex 38.519600 53.250000 3.000000
endloop
endfacet
facet normal 0.447214 -0.000000 0.894427
outer loop
vertex 38.519600 53.250000 3.000000
vertex 8.519598 53.250000 18.000000
vertex 8.519598 -6.750000 18.000000
endloop
endfacet
endsolid Exported from Blender-2.71 (sub 0)
