solid Exported from Blender-2.71 (sub 0)
facet normal -0.476804 0.000000 0.879010
outer loop
vertex -1.252511 -2.763710 5.000000
vertex 0.969711 -2.763710 6.205406
vertex 0.969711 17.236290 6.205406
endloop
endfacet
facet normal -0.476804 0.000000 0.879010
outer loop
vertex 0.969711 17.236290 6.205406
vertex -1.252511 17.236290 5.000000
vertex -1.252511 -2.763710 5.000000
endloop
endfacet
facet normal 0.476804 0.000000 0.879010
outer loop
vertex -3.474733 -2.763710 6.205406
vertex -1.252511 -2.763710 5.000000
vertex -1.252511 17.236290 5.000000
endloop
endfacet
facet normal 0.476804 -0.000000 0.879010
outer loop
vertex -1.252511 17.236290 5.000000
vertex -3.474733 17.236290 6.205406
vertex -3.474733 -2.763710 6.205406
endloop
endfacet
facet normal 0.476804 0.000000 0.879010
outer loop
vertex 0.969711 -2.763710 6.205406
vertex 3.191934 -2.763710 5.000000
vertex 3.191934 17.236290 5.000000
endloop
endfacet
facet normal 0.476804 -0.000000 0.879010
outer loop
vertex 3.191934 17.236290 5.000000
vertex 0.969711 17.236290 6.205406
vertex 0.969711 -2.763710 6.205406
endloop
endfacet
facet normal -0.476804 0.000000 0.879010
outer loop
vertex 3.191934 17.236290 5.000000
vertex 3.191934 -2.763710 5.000000
vertex 5.414156 -2.763710 6.205406
endloop
endfacet
facet normal -0.476804 0.000000 0.879010
outer loop
vertex 5.414156 -2.763710 6.205406
vertex 5.414156 17.236290 6.205406
vertex 3.191934 17.236290 5.000000
endloop
endfacet
facet normal -0.476804 0.000000 0.879010
outer loop
vertex 7.636379 17.236290 5.000000
vertex 7.636379 -2.763710 5.000000
vertex 9.858601 -2.763710 6.205406
endloop
endfacet
facet normal -0.476804 0.000000 0.879010
outer loop
vertex 9.858601 -2.763710 6.205406
vertex 9.858601 17.236290 6.205406
vertex 7.636379 17.236290 5.000000
endloop
endfacet
facet normal 0.476804 -0.000000 0.879010
outer loop
vertex 5.414156 17.236290 6.205406
vertex 5.414156 -2.763710 6.205406
vertex 7.636379 -2.763710 5.000000
endloop
endfacet
facet normal 0.476804 0.000000 0.879010
outer loop
vertex 7.636379 -2.763710 5.000000
vertex 7.636379 17.236290 5.000000
vertex 5.414156 17.236290 6.205406
endloop
endfacet
facet normal 0.476804 -0.000000 0.879010
outer loop
vertex 9.858601 17.236290 6.205406
vertex 9.858601 -2.763710 6.205406
vertex 12.080822 -2.763710 5.000000
endloop
endfacet
facet normal 0.476804 0.000000 0.879010
outer loop
vertex 12.080822 -2.763710 5.000000
vertex 12.080822 17.236290 5.000000
vertex 9.858601 17.236290 6.205406
endloop
endfacet
facet normal -0.476804 0.000000 0.879010
outer loop
vertex 12.080822 17.236290 5.000000
vertex 12.080822 -2.763710 5.000000
vertex 14.303045 -2.763710 6.205406
endloop
endfacet
facet normal -0.476804 0.000000 0.879010
outer loop
vertex 14.303045 -2.763710 6.205406
vertex 14.303045 17.236290 6.205406
vertex 12.080822 17.236290 5.000000
endloop
endfacet
facet normal 0.476804 -0.000000 0.879010
outer loop
vertex 14.303045 17.236290 6.205406
vertex 14.303045 -2.763710 6.205406
vertex 16.525267 -2.763710 5.000000
endloop
endfacet
facet normal 0.476804 0.000000 0.879010
outer loop
vertex 16.525267 -2.763710 5.000000
vertex 16.525267 17.236290 5.000000
vertex 14.303045 17.236290 6.205406
endloop
endfacet
endsolid Exported from Blender-2.71 (sub 0)
