solid ascii
  facet normal 1.000000e+000 0.000000e+000 -1.163483e-016
    outer loop
      vertex   1.593662e-015 0.000000e+000 1.369735e+001
      vertex   0.000000e+000 0.000000e+000 0.000000e+000
      vertex   1.593662e-015 1.000000e+001 1.369735e+001
    endloop
  endfacet
  facet normal 1.000000e+000 0.000000e+000 -1.163483e-016
    outer loop
      vertex   1.593662e-015 1.000000e+001 1.369735e+001
      vertex   0.000000e+000 0.000000e+000 0.000000e+000
      vertex   0.000000e+000 1.000000e+001 0.000000e+000
    endloop
  endfacet
  facet normal 9.994434e-001 0.000000e+000 3.336015e-002
    outer loop
      vertex   -3.500000e+000 0.000000e+000 2.500000e+001
      vertex   -3.455484e+000 0.000000e+000 2.366634e+001
      vertex   -3.500000e+000 1.000000e+001 2.500000e+001
    endloop
  endfacet
  facet normal 9.994434e-001 -0.000000e+000 3.336015e-002
    outer loop
      vertex   -3.500000e+000 1.000000e+001 2.500000e+001
      vertex   -3.455484e+000 0.000000e+000 2.366634e+001
      vertex   -3.455484e+000 1.000000e+001 2.366634e+001
    endloop
  endfacet
  facet normal 9.949943e-001 0.000000e+000 9.993194e-002
    outer loop
      vertex   -3.455484e+000 1.000000e+001 2.366634e+001
      vertex   -3.455484e+000 0.000000e+000 2.366634e+001
      vertex   -3.322134e+000 0.000000e+000 2.233861e+001
    endloop
  endfacet
  facet normal 9.861158e-001 0.000000e+000 1.660589e-001
    outer loop
      vertex   -3.322134e+000 1.000000e+001 2.233861e+001
      vertex   -3.322134e+000 0.000000e+000 2.233861e+001
      vertex   -3.100544e+000 0.000000e+000 2.102273e+001
    endloop
  endfacet
  facet normal 9.728476e-001 0.000000e+000 2.314466e-001
    outer loop
      vertex   -3.100544e+000 1.000000e+001 2.102273e+001
      vertex   -3.100544e+000 0.000000e+000 2.102273e+001
      vertex   -2.791701e+000 0.000000e+000 1.972456e+001
    endloop
  endfacet
  facet normal 9.552487e-001 0.000000e+000 2.958040e-001
    outer loop
      vertex   -2.791701e+000 1.000000e+001 1.972456e+001
      vertex   -2.791701e+000 0.000000e+000 1.972456e+001
      vertex   -2.396978e+000 0.000000e+000 1.844987e+001
    endloop
  endfacet
  facet normal 9.333973e-001 0.000000e+000 3.588446e-001
    outer loop
      vertex   -2.396978e+000 1.000000e+001 1.844987e+001
      vertex   -2.396978e+000 0.000000e+000 1.844987e+001
      vertex   -1.918134e+000 0.000000e+000 1.720434e+001
    endloop
  endfacet
  facet normal 9.073909e-001 0.000000e+000 4.202878e-001
    outer loop
      vertex   -1.918134e+000 1.000000e+001 1.720434e+001
      vertex   -1.918134e+000 0.000000e+000 1.720434e+001
      vertex   -1.357299e+000 0.000000e+000 1.599351e+001
    endloop
  endfacet
  facet normal 8.773451e-001 0.000000e+000 4.798600e-001
    outer loop
      vertex   -1.357299e+000 1.000000e+001 1.599351e+001
      vertex   -1.357299e+000 0.000000e+000 1.599351e+001
      vertex   -7.169711e-001 0.000000e+000 1.482278e+001
    endloop
  endfacet
  facet normal 8.433937e-001 0.000000e+000 5.372960e-001
    outer loop
      vertex   -7.169711e-001 1.000000e+001 1.482278e+001
      vertex   -7.169711e-001 0.000000e+000 1.482278e+001
      vertex   1.593662e-015 1.000000e+001 1.369735e+001
    endloop
  endfacet
  facet normal 8.773451e-001 0.000000e+000 4.798600e-001
    outer loop
      vertex   -7.169711e-001 1.000000e+001 1.482278e+001
      vertex   -1.357299e+000 1.000000e+001 1.599351e+001
      vertex   -7.169711e-001 0.000000e+000 1.482278e+001
    endloop
  endfacet
  facet normal 9.949943e-001 -0.000000e+000 9.993194e-002
    outer loop
      vertex   -3.455484e+000 1.000000e+001 2.366634e+001
      vertex   -3.322134e+000 0.000000e+000 2.233861e+001
      vertex   -3.322134e+000 1.000000e+001 2.233861e+001
    endloop
  endfacet
  facet normal 9.861158e-001 -0.000000e+000 1.660589e-001
    outer loop
      vertex   -3.322134e+000 1.000000e+001 2.233861e+001
      vertex   -3.100544e+000 0.000000e+000 2.102273e+001
      vertex   -3.100544e+000 1.000000e+001 2.102273e+001
    endloop
  endfacet
  facet normal 9.728476e-001 -0.000000e+000 2.314466e-001
    outer loop
      vertex   -3.100544e+000 1.000000e+001 2.102273e+001
      vertex   -2.791701e+000 0.000000e+000 1.972456e+001
      vertex   -2.791701e+000 1.000000e+001 1.972456e+001
    endloop
  endfacet
  facet normal 9.552487e-001 -0.000000e+000 2.958040e-001
    outer loop
      vertex   -2.791701e+000 1.000000e+001 1.972456e+001
      vertex   -2.396978e+000 0.000000e+000 1.844987e+001
      vertex   -2.396978e+000 1.000000e+001 1.844987e+001
    endloop
  endfacet
  facet normal 9.333973e-001 -0.000000e+000 3.588446e-001
    outer loop
      vertex   -2.396978e+000 1.000000e+001 1.844987e+001
      vertex   -1.918134e+000 0.000000e+000 1.720434e+001
      vertex   -1.918134e+000 1.000000e+001 1.720434e+001
    endloop
  endfacet
  facet normal 9.073909e-001 -0.000000e+000 4.202878e-001
    outer loop
      vertex   -1.918134e+000 1.000000e+001 1.720434e+001
      vertex   -1.357299e+000 0.000000e+000 1.599351e+001
      vertex   -1.357299e+000 1.000000e+001 1.599351e+001
    endloop
  endfacet
  facet normal 8.433937e-001 -0.000000e+000 5.372960e-001
    outer loop
      vertex   -7.169711e-001 0.000000e+000 1.482278e+001
      vertex   1.593662e-015 0.000000e+000 1.369735e+001
      vertex   1.593662e-015 1.000000e+001 1.369735e+001
    endloop
  endfacet
  facet normal 1.000000e+000 0.000000e+000 -5.921189e-017
    outer loop
      vertex   -3.500000e+000 0.000000e+000 5.500000e+001
      vertex   -3.500000e+000 0.000000e+000 2.500000e+001
      vertex   -3.500000e+000 1.000000e+001 5.500000e+001
    endloop
  endfacet
  facet normal 1.000000e+000 0.000000e+000 -5.921189e-017
    outer loop
      vertex   -3.500000e+000 1.000000e+001 5.500000e+001
      vertex   -3.500000e+000 0.000000e+000 2.500000e+001
      vertex   -3.500000e+000 1.000000e+001 2.500000e+001
    endloop
  endfacet
  facet normal 8.433937e-001 0.000000e+000 -5.372960e-001
    outer loop
      vertex   4.814808e-015 0.000000e+000 6.630265e+001
      vertex   -7.169711e-001 0.000000e+000 6.517722e+001
      vertex   4.814808e-015 1.000000e+001 6.630265e+001
    endloop
  endfacet
  facet normal 8.433937e-001 0.000000e+000 -5.372960e-001
    outer loop
      vertex   4.814808e-015 1.000000e+001 6.630265e+001
      vertex   -7.169711e-001 0.000000e+000 6.517722e+001
      vertex   -7.169711e-001 1.000000e+001 6.517722e+001
    endloop
  endfacet
  facet normal 8.773451e-001 0.000000e+000 -4.798600e-001
    outer loop
      vertex   -7.169711e-001 1.000000e+001 6.517722e+001
      vertex   -7.169711e-001 0.000000e+000 6.517722e+001
      vertex   -1.357299e+000 0.000000e+000 6.400649e+001
    endloop
  endfacet
  facet normal 9.073909e-001 0.000000e+000 -4.202878e-001
    outer loop
      vertex   -1.357299e+000 1.000000e+001 6.400649e+001
      vertex   -1.357299e+000 0.000000e+000 6.400649e+001
      vertex   -1.918134e+000 0.000000e+000 6.279566e+001
    endloop
  endfacet
  facet normal 9.333973e-001 0.000000e+000 -3.588446e-001
    outer loop
      vertex   -1.918134e+000 1.000000e+001 6.279566e+001
      vertex   -1.918134e+000 0.000000e+000 6.279566e+001
      vertex   -2.396978e+000 0.000000e+000 6.155013e+001
    endloop
  endfacet
  facet normal 9.552487e-001 0.000000e+000 -2.958040e-001
    outer loop
      vertex   -2.396978e+000 1.000000e+001 6.155013e+001
      vertex   -2.396978e+000 0.000000e+000 6.155013e+001
      vertex   -2.791701e+000 0.000000e+000 6.027544e+001
    endloop
  endfacet
  facet normal 9.728476e-001 0.000000e+000 -2.314466e-001
    outer loop
      vertex   -2.791701e+000 1.000000e+001 6.027544e+001
      vertex   -2.791701e+000 0.000000e+000 6.027544e+001
      vertex   -3.100544e+000 0.000000e+000 5.897727e+001
    endloop
  endfacet
  facet normal 9.861158e-001 0.000000e+000 -1.660589e-001
    outer loop
      vertex   -3.100544e+000 1.000000e+001 5.897727e+001
      vertex   -3.100544e+000 0.000000e+000 5.897727e+001
      vertex   -3.322134e+000 0.000000e+000 5.766139e+001
    endloop
  endfacet
  facet normal 9.949943e-001 0.000000e+000 -9.993194e-002
    outer loop
      vertex   -3.322134e+000 1.000000e+001 5.766139e+001
      vertex   -3.322134e+000 0.000000e+000 5.766139e+001
      vertex   -3.455484e+000 0.000000e+000 5.633366e+001
    endloop
  endfacet
  facet normal 9.994434e-001 0.000000e+000 -3.336015e-002
    outer loop
      vertex   -3.455484e+000 1.000000e+001 5.633366e+001
      vertex   -3.455484e+000 0.000000e+000 5.633366e+001
      vertex   -3.500000e+000 1.000000e+001 5.500000e+001
    endloop
  endfacet
  facet normal 9.949943e-001 0.000000e+000 -9.993194e-002
    outer loop
      vertex   -3.455484e+000 1.000000e+001 5.633366e+001
      vertex   -3.322134e+000 1.000000e+001 5.766139e+001
      vertex   -3.455484e+000 0.000000e+000 5.633366e+001
    endloop
  endfacet
  facet normal 8.773451e-001 0.000000e+000 -4.798600e-001
    outer loop
      vertex   -7.169711e-001 1.000000e+001 6.517722e+001
      vertex   -1.357299e+000 0.000000e+000 6.400649e+001
      vertex   -1.357299e+000 1.000000e+001 6.400649e+001
    endloop
  endfacet
  facet normal 9.073909e-001 0.000000e+000 -4.202878e-001
    outer loop
      vertex   -1.357299e+000 1.000000e+001 6.400649e+001
      vertex   -1.918134e+000 0.000000e+000 6.279566e+001
      vertex   -1.918134e+000 1.000000e+001 6.279566e+001
    endloop
  endfacet
  facet normal 9.333973e-001 0.000000e+000 -3.588446e-001
    outer loop
      vertex   -1.918134e+000 1.000000e+001 6.279566e+001
      vertex   -2.396978e+000 0.000000e+000 6.155013e+001
      vertex   -2.396978e+000 1.000000e+001 6.155013e+001
    endloop
  endfacet
  facet normal 9.552487e-001 0.000000e+000 -2.958040e-001
    outer loop
      vertex   -2.396978e+000 1.000000e+001 6.155013e+001
      vertex   -2.791701e+000 0.000000e+000 6.027544e+001
      vertex   -2.791701e+000 1.000000e+001 6.027544e+001
    endloop
  endfacet
  facet normal 9.728476e-001 0.000000e+000 -2.314466e-001
    outer loop
      vertex   -2.791701e+000 1.000000e+001 6.027544e+001
      vertex   -3.100544e+000 0.000000e+000 5.897727e+001
      vertex   -3.100544e+000 1.000000e+001 5.897727e+001
    endloop
  endfacet
  facet normal 9.861158e-001 0.000000e+000 -1.660589e-001
    outer loop
      vertex   -3.100544e+000 1.000000e+001 5.897727e+001
      vertex   -3.322134e+000 0.000000e+000 5.766139e+001
      vertex   -3.322134e+000 1.000000e+001 5.766139e+001
    endloop
  endfacet
  facet normal 9.994434e-001 0.000000e+000 -3.336015e-002
    outer loop
      vertex   -3.455484e+000 0.000000e+000 5.633366e+001
      vertex   -3.500000e+000 0.000000e+000 5.500000e+001
      vertex   -3.500000e+000 1.000000e+001 5.500000e+001
    endloop
  endfacet
  facet normal 1.000000e+000 0.000000e+000 -6.116421e-018
    outer loop
      vertex   4.898587e-015 0.000000e+000 8.000000e+001
      vertex   4.814808e-015 0.000000e+000 6.630265e+001
      vertex   4.898587e-015 1.000000e+001 8.000000e+001
    endloop
  endfacet
  facet normal 1.000000e+000 0.000000e+000 -6.116421e-018
    outer loop
      vertex   4.898587e-015 1.000000e+001 8.000000e+001
      vertex   4.814808e-015 0.000000e+000 6.630265e+001
      vertex   4.814808e-015 1.000000e+001 6.630265e+001
    endloop
  endfacet
  facet normal 0.000000e+000 -0.000000e+000 1.000000e+000
    outer loop
      vertex   -2.000000e+001 0.000000e+000 8.000000e+001
      vertex   4.898587e-015 0.000000e+000 8.000000e+001
      vertex   -2.000000e+001 1.000000e+001 8.000000e+001
    endloop
  endfacet
  facet normal -0.000000e+000 0.000000e+000 1.000000e+000
    outer loop
      vertex   -2.000000e+001 1.000000e+001 8.000000e+001
      vertex   4.898587e-015 0.000000e+000 8.000000e+001
      vertex   4.898587e-015 1.000000e+001 8.000000e+001
    endloop
  endfacet
  facet normal -1.000000e+000 0.000000e+000 0.000000e+000
    outer loop
      vertex   -2.000000e+001 0.000000e+000 6.630265e+001
      vertex   -2.000000e+001 0.000000e+000 8.000000e+001
      vertex   -2.000000e+001 1.000000e+001 6.630265e+001
    endloop
  endfacet
  facet normal -1.000000e+000 0.000000e+000 0.000000e+000
    outer loop
      vertex   -2.000000e+001 1.000000e+001 6.630265e+001
      vertex   -2.000000e+001 0.000000e+000 8.000000e+001
      vertex   -2.000000e+001 1.000000e+001 8.000000e+001
    endloop
  endfacet
  facet normal -9.994434e-001 0.000000e+000 -3.336015e-002
    outer loop
      vertex   -1.650000e+001 0.000000e+000 5.500000e+001
      vertex   -1.654452e+001 0.000000e+000 5.633366e+001
      vertex   -1.650000e+001 1.000000e+001 5.500000e+001
    endloop
  endfacet
  facet normal -9.994434e-001 0.000000e+000 -3.336015e-002
    outer loop
      vertex   -1.650000e+001 1.000000e+001 5.500000e+001
      vertex   -1.654452e+001 0.000000e+000 5.633366e+001
      vertex   -1.654452e+001 1.000000e+001 5.633366e+001
    endloop
  endfacet
  facet normal -9.949943e-001 -0.000000e+000 -9.993194e-002
    outer loop
      vertex   -1.654452e+001 1.000000e+001 5.633366e+001
      vertex   -1.654452e+001 0.000000e+000 5.633366e+001
      vertex   -1.667787e+001 0.000000e+000 5.766139e+001
    endloop
  endfacet
  facet normal -9.861158e-001 -0.000000e+000 -1.660589e-001
    outer loop
      vertex   -1.667787e+001 1.000000e+001 5.766139e+001
      vertex   -1.667787e+001 0.000000e+000 5.766139e+001
      vertex   -1.689946e+001 0.000000e+000 5.897727e+001
    endloop
  endfacet
  facet normal -9.728476e-001 -0.000000e+000 -2.314466e-001
    outer loop
      vertex   -1.689946e+001 1.000000e+001 5.897727e+001
      vertex   -1.689946e+001 0.000000e+000 5.897727e+001
      vertex   -1.720830e+001 0.000000e+000 6.027544e+001
    endloop
  endfacet
  facet normal -9.552487e-001 -0.000000e+000 -2.958040e-001
    outer loop
      vertex   -1.720830e+001 1.000000e+001 6.027544e+001
      vertex   -1.720830e+001 0.000000e+000 6.027544e+001
      vertex   -1.760302e+001 0.000000e+000 6.155013e+001
    endloop
  endfacet
  facet normal -9.333973e-001 -0.000000e+000 -3.588446e-001
    outer loop
      vertex   -1.760302e+001 1.000000e+001 6.155013e+001
      vertex   -1.760302e+001 0.000000e+000 6.155013e+001
      vertex   -1.808187e+001 0.000000e+000 6.279566e+001
    endloop
  endfacet
  facet normal -9.073909e-001 -0.000000e+000 -4.202878e-001
    outer loop
      vertex   -1.808187e+001 1.000000e+001 6.279566e+001
      vertex   -1.808187e+001 0.000000e+000 6.279566e+001
      vertex   -1.864270e+001 0.000000e+000 6.400649e+001
    endloop
  endfacet
  facet normal -8.773451e-001 -0.000000e+000 -4.798600e-001
    outer loop
      vertex   -1.864270e+001 1.000000e+001 6.400649e+001
      vertex   -1.864270e+001 0.000000e+000 6.400649e+001
      vertex   -1.928303e+001 0.000000e+000 6.517722e+001
    endloop
  endfacet
  facet normal -8.433937e-001 -0.000000e+000 -5.372960e-001
    outer loop
      vertex   -1.928303e+001 1.000000e+001 6.517722e+001
      vertex   -1.928303e+001 0.000000e+000 6.517722e+001
      vertex   -2.000000e+001 1.000000e+001 6.630265e+001
    endloop
  endfacet
  facet normal -8.773451e-001 0.000000e+000 -4.798600e-001
    outer loop
      vertex   -1.928303e+001 1.000000e+001 6.517722e+001
      vertex   -1.864270e+001 1.000000e+001 6.400649e+001
      vertex   -1.928303e+001 0.000000e+000 6.517722e+001
    endloop
  endfacet
  facet normal -9.949943e-001 0.000000e+000 -9.993194e-002
    outer loop
      vertex   -1.654452e+001 1.000000e+001 5.633366e+001
      vertex   -1.667787e+001 0.000000e+000 5.766139e+001
      vertex   -1.667787e+001 1.000000e+001 5.766139e+001
    endloop
  endfacet
  facet normal -9.861158e-001 0.000000e+000 -1.660589e-001
    outer loop
      vertex   -1.667787e+001 1.000000e+001 5.766139e+001
      vertex   -1.689946e+001 0.000000e+000 5.897727e+001
      vertex   -1.689946e+001 1.000000e+001 5.897727e+001
    endloop
  endfacet
  facet normal -9.728476e-001 0.000000e+000 -2.314466e-001
    outer loop
      vertex   -1.689946e+001 1.000000e+001 5.897727e+001
      vertex   -1.720830e+001 0.000000e+000 6.027544e+001
      vertex   -1.720830e+001 1.000000e+001 6.027544e+001
    endloop
  endfacet
  facet normal -9.552487e-001 0.000000e+000 -2.958040e-001
    outer loop
      vertex   -1.720830e+001 1.000000e+001 6.027544e+001
      vertex   -1.760302e+001 0.000000e+000 6.155013e+001
      vertex   -1.760302e+001 1.000000e+001 6.155013e+001
    endloop
  endfacet
  facet normal -9.333973e-001 0.000000e+000 -3.588446e-001
    outer loop
      vertex   -1.760302e+001 1.000000e+001 6.155013e+001
      vertex   -1.808187e+001 0.000000e+000 6.279566e+001
      vertex   -1.808187e+001 1.000000e+001 6.279566e+001
    endloop
  endfacet
  facet normal -9.073909e-001 0.000000e+000 -4.202878e-001
    outer loop
      vertex   -1.808187e+001 1.000000e+001 6.279566e+001
      vertex   -1.864270e+001 0.000000e+000 6.400649e+001
      vertex   -1.864270e+001 1.000000e+001 6.400649e+001
    endloop
  endfacet
  facet normal -8.433937e-001 0.000000e+000 -5.372960e-001
    outer loop
      vertex   -1.928303e+001 0.000000e+000 6.517722e+001
      vertex   -2.000000e+001 0.000000e+000 6.630265e+001
      vertex   -2.000000e+001 1.000000e+001 6.630265e+001
    endloop
  endfacet
  facet normal -1.000000e+000 0.000000e+000 1.184238e-016
    outer loop
      vertex   -1.650000e+001 0.000000e+000 2.500000e+001
      vertex   -1.650000e+001 0.000000e+000 5.500000e+001
      vertex   -1.650000e+001 1.000000e+001 2.500000e+001
    endloop
  endfacet
  facet normal -1.000000e+000 0.000000e+000 1.184238e-016
    outer loop
      vertex   -1.650000e+001 1.000000e+001 2.500000e+001
      vertex   -1.650000e+001 0.000000e+000 5.500000e+001
      vertex   -1.650000e+001 1.000000e+001 5.500000e+001
    endloop
  endfacet
  facet normal -8.433937e-001 0.000000e+000 5.372960e-001
    outer loop
      vertex   -2.000000e+001 0.000000e+000 1.369735e+001
      vertex   -1.928303e+001 0.000000e+000 1.482278e+001
      vertex   -2.000000e+001 1.000000e+001 1.369735e+001
    endloop
  endfacet
  facet normal -8.433937e-001 0.000000e+000 5.372960e-001
    outer loop
      vertex   -2.000000e+001 1.000000e+001 1.369735e+001
      vertex   -1.928303e+001 0.000000e+000 1.482278e+001
      vertex   -1.928303e+001 1.000000e+001 1.482278e+001
    endloop
  endfacet
  facet normal -8.773451e-001 0.000000e+000 4.798600e-001
    outer loop
      vertex   -1.928303e+001 1.000000e+001 1.482278e+001
      vertex   -1.928303e+001 0.000000e+000 1.482278e+001
      vertex   -1.864270e+001 0.000000e+000 1.599351e+001
    endloop
  endfacet
  facet normal -9.073909e-001 0.000000e+000 4.202878e-001
    outer loop
      vertex   -1.864270e+001 1.000000e+001 1.599351e+001
      vertex   -1.864270e+001 0.000000e+000 1.599351e+001
      vertex   -1.808187e+001 0.000000e+000 1.720434e+001
    endloop
  endfacet
  facet normal -9.333973e-001 0.000000e+000 3.588446e-001
    outer loop
      vertex   -1.808187e+001 1.000000e+001 1.720434e+001
      vertex   -1.808187e+001 0.000000e+000 1.720434e+001
      vertex   -1.760302e+001 0.000000e+000 1.844987e+001
    endloop
  endfacet
  facet normal -9.552487e-001 0.000000e+000 2.958040e-001
    outer loop
      vertex   -1.760302e+001 1.000000e+001 1.844987e+001
      vertex   -1.760302e+001 0.000000e+000 1.844987e+001
      vertex   -1.720830e+001 0.000000e+000 1.972456e+001
    endloop
  endfacet
  facet normal -9.728476e-001 0.000000e+000 2.314466e-001
    outer loop
      vertex   -1.720830e+001 1.000000e+001 1.972456e+001
      vertex   -1.720830e+001 0.000000e+000 1.972456e+001
      vertex   -1.689946e+001 0.000000e+000 2.102273e+001
    endloop
  endfacet
  facet normal -9.861158e-001 0.000000e+000 1.660589e-001
    outer loop
      vertex   -1.689946e+001 1.000000e+001 2.102273e+001
      vertex   -1.689946e+001 0.000000e+000 2.102273e+001
      vertex   -1.667787e+001 0.000000e+000 2.233861e+001
    endloop
  endfacet
  facet normal -9.949943e-001 0.000000e+000 9.993194e-002
    outer loop
      vertex   -1.667787e+001 1.000000e+001 2.233861e+001
      vertex   -1.667787e+001 0.000000e+000 2.233861e+001
      vertex   -1.654452e+001 0.000000e+000 2.366634e+001
    endloop
  endfacet
  facet normal -9.994434e-001 0.000000e+000 3.336015e-002
    outer loop
      vertex   -1.654452e+001 1.000000e+001 2.366634e+001
      vertex   -1.654452e+001 0.000000e+000 2.366634e+001
      vertex   -1.650000e+001 1.000000e+001 2.500000e+001
    endloop
  endfacet
  facet normal -9.949943e-001 0.000000e+000 9.993194e-002
    outer loop
      vertex   -1.654452e+001 1.000000e+001 2.366634e+001
      vertex   -1.667787e+001 1.000000e+001 2.233861e+001
      vertex   -1.654452e+001 0.000000e+000 2.366634e+001
    endloop
  endfacet
  facet normal -8.773451e-001 0.000000e+000 4.798600e-001
    outer loop
      vertex   -1.928303e+001 1.000000e+001 1.482278e+001
      vertex   -1.864270e+001 0.000000e+000 1.599351e+001
      vertex   -1.864270e+001 1.000000e+001 1.599351e+001
    endloop
  endfacet
  facet normal -9.073909e-001 0.000000e+000 4.202878e-001
    outer loop
      vertex   -1.864270e+001 1.000000e+001 1.599351e+001
      vertex   -1.808187e+001 0.000000e+000 1.720434e+001
      vertex   -1.808187e+001 1.000000e+001 1.720434e+001
    endloop
  endfacet
  facet normal -9.333973e-001 0.000000e+000 3.588446e-001
    outer loop
      vertex   -1.808187e+001 1.000000e+001 1.720434e+001
      vertex   -1.760302e+001 0.000000e+000 1.844987e+001
      vertex   -1.760302e+001 1.000000e+001 1.844987e+001
    endloop
  endfacet
  facet normal -9.552487e-001 0.000000e+000 2.958040e-001
    outer loop
      vertex   -1.760302e+001 1.000000e+001 1.844987e+001
      vertex   -1.720830e+001 0.000000e+000 1.972456e+001
      vertex   -1.720830e+001 1.000000e+001 1.972456e+001
    endloop
  endfacet
  facet normal -9.728476e-001 0.000000e+000 2.314466e-001
    outer loop
      vertex   -1.720830e+001 1.000000e+001 1.972456e+001
      vertex   -1.689946e+001 0.000000e+000 2.102273e+001
      vertex   -1.689946e+001 1.000000e+001 2.102273e+001
    endloop
  endfacet
  facet normal -9.861158e-001 0.000000e+000 1.660589e-001
    outer loop
      vertex   -1.689946e+001 1.000000e+001 2.102273e+001
      vertex   -1.667787e+001 0.000000e+000 2.233861e+001
      vertex   -1.667787e+001 1.000000e+001 2.233861e+001
    endloop
  endfacet
  facet normal -9.994434e-001 0.000000e+000 3.336015e-002
    outer loop
      vertex   -1.654452e+001 0.000000e+000 2.366634e+001
      vertex   -1.650000e+001 0.000000e+000 2.500000e+001
      vertex   -1.650000e+001 1.000000e+001 2.500000e+001
    endloop
  endfacet
  facet normal -1.000000e+000 0.000000e+000 2.593724e-016
    outer loop
      vertex   -2.000000e+001 0.000000e+000 9.797174e-015
      vertex   -2.000000e+001 0.000000e+000 1.369735e+001
      vertex   -2.000000e+001 1.000000e+001 9.797174e-015
    endloop
  endfacet
  facet normal -1.000000e+000 0.000000e+000 2.593724e-016
    outer loop
      vertex   -2.000000e+001 1.000000e+001 9.797174e-015
      vertex   -2.000000e+001 0.000000e+000 1.369735e+001
      vertex   -2.000000e+001 1.000000e+001 1.369735e+001
    endloop
  endfacet
  facet normal -4.898587e-016 0.000000e+000 -1.000000e+000
    outer loop
      vertex   0.000000e+000 0.000000e+000 0.000000e+000
      vertex   -2.000000e+001 0.000000e+000 9.797174e-015
      vertex   0.000000e+000 1.000000e+001 0.000000e+000
    endloop
  endfacet
  facet normal -4.898587e-016 0.000000e+000 -1.000000e+000
    outer loop
      vertex   0.000000e+000 1.000000e+001 0.000000e+000
      vertex   -2.000000e+001 0.000000e+000 9.797174e-015
      vertex   -2.000000e+001 1.000000e+001 9.797174e-015
    endloop
  endfacet
  facet normal -0.000000e+000 1.000000e+000 0.000000e+000
    outer loop
      vertex   -2.000000e+001 1.000000e+001 9.797174e-015
      vertex   -2.791701e+000 1.000000e+001 1.972456e+001
      vertex   0.000000e+000 1.000000e+001 0.000000e+000
    endloop
  endfacet
  facet normal -0.000000e+000 1.000000e+000 0.000000e+000
    outer loop
      vertex   -2.000000e+001 1.000000e+001 9.797174e-015
      vertex   -1.720830e+001 1.000000e+001 1.972456e+001
      vertex   -2.791701e+000 1.000000e+001 1.972456e+001
    endloop
  endfacet
  facet normal 0.000000e+000 1.000000e+000 0.000000e+000
    outer loop
      vertex   -2.000000e+001 1.000000e+001 9.797174e-015
      vertex   -1.760302e+001 1.000000e+001 1.844987e+001
      vertex   -1.720830e+001 1.000000e+001 1.972456e+001
    endloop
  endfacet
  facet normal 0.000000e+000 1.000000e+000 0.000000e+000
    outer loop
      vertex   -2.000000e+001 1.000000e+001 9.797174e-015
      vertex   -1.808187e+001 1.000000e+001 1.720434e+001
      vertex   -1.760302e+001 1.000000e+001 1.844987e+001
    endloop
  endfacet
  facet normal 0.000000e+000 1.000000e+000 0.000000e+000
    outer loop
      vertex   -2.000000e+001 1.000000e+001 9.797174e-015
      vertex   -1.864270e+001 1.000000e+001 1.599351e+001
      vertex   -1.808187e+001 1.000000e+001 1.720434e+001
    endloop
  endfacet
  facet normal 0.000000e+000 1.000000e+000 0.000000e+000
    outer loop
      vertex   -2.000000e+001 1.000000e+001 9.797174e-015
      vertex   -1.928303e+001 1.000000e+001 1.482278e+001
      vertex   -1.864270e+001 1.000000e+001 1.599351e+001
    endloop
  endfacet
  facet normal 0.000000e+000 1.000000e+000 0.000000e+000
    outer loop
      vertex   -2.000000e+001 1.000000e+001 9.797174e-015
      vertex   -2.000000e+001 1.000000e+001 1.369735e+001
      vertex   -1.928303e+001 1.000000e+001 1.482278e+001
    endloop
  endfacet
  facet normal -0.000000e+000 1.000000e+000 0.000000e+000
    outer loop
      vertex   -1.720830e+001 1.000000e+001 1.972456e+001
      vertex   -1.689946e+001 1.000000e+001 2.102273e+001
      vertex   -2.791701e+000 1.000000e+001 1.972456e+001
    endloop
  endfacet
  facet normal -0.000000e+000 1.000000e+000 -0.000000e+000
    outer loop
      vertex   -2.791701e+000 1.000000e+001 1.972456e+001
      vertex   -1.689946e+001 1.000000e+001 2.102273e+001
      vertex   -3.100544e+000 1.000000e+001 2.102273e+001
    endloop
  endfacet
  facet normal 0.000000e+000 1.000000e+000 -0.000000e+000
    outer loop
      vertex   -3.100544e+000 1.000000e+001 2.102273e+001
      vertex   -1.689946e+001 1.000000e+001 2.102273e+001
      vertex   -1.667787e+001 1.000000e+001 2.233861e+001
    endloop
  endfacet
  facet normal 0.000000e+000 1.000000e+000 -0.000000e+000
    outer loop
      vertex   -3.322134e+000 1.000000e+001 2.233861e+001
      vertex   -1.667787e+001 1.000000e+001 2.233861e+001
      vertex   -3.455484e+000 1.000000e+001 2.366634e+001
    endloop
  endfacet
  facet normal 0.000000e+000 1.000000e+000 0.000000e+000
    outer loop
      vertex   -3.322134e+000 1.000000e+001 2.233861e+001
      vertex   -3.100544e+000 1.000000e+001 2.102273e+001
      vertex   -1.667787e+001 1.000000e+001 2.233861e+001
    endloop
  endfacet
  facet normal -0.000000e+000 1.000000e+000 0.000000e+000
    outer loop
      vertex   -1.667787e+001 1.000000e+001 2.233861e+001
      vertex   -1.654452e+001 1.000000e+001 2.366634e+001
      vertex   -3.455484e+000 1.000000e+001 2.366634e+001
    endloop
  endfacet
  facet normal 0.000000e+000 1.000000e+000 -0.000000e+000
    outer loop
      vertex   -3.455484e+000 1.000000e+001 2.366634e+001
      vertex   -1.654452e+001 1.000000e+001 2.366634e+001
      vertex   -3.500000e+000 1.000000e+001 2.500000e+001
    endloop
  endfacet
  facet normal 0.000000e+000 1.000000e+000 -0.000000e+000
    outer loop
      vertex   -3.500000e+000 1.000000e+001 2.500000e+001
      vertex   -1.654452e+001 1.000000e+001 2.366634e+001
      vertex   -1.650000e+001 1.000000e+001 2.500000e+001
    endloop
  endfacet
  facet normal 0.000000e+000 1.000000e+000 0.000000e+000
    outer loop
      vertex   -1.650000e+001 1.000000e+001 5.500000e+001
      vertex   -3.500000e+000 1.000000e+001 2.500000e+001
      vertex   -1.650000e+001 1.000000e+001 2.500000e+001
    endloop
  endfacet
  facet normal -0.000000e+000 1.000000e+000 0.000000e+000
    outer loop
      vertex   -1.650000e+001 1.000000e+001 5.500000e+001
      vertex   -3.500000e+000 1.000000e+001 5.500000e+001
      vertex   -3.500000e+000 1.000000e+001 2.500000e+001
    endloop
  endfacet
  facet normal -0.000000e+000 1.000000e+000 -0.000000e+000
    outer loop
      vertex   -1.650000e+001 1.000000e+001 5.500000e+001
      vertex   -1.654452e+001 1.000000e+001 5.633366e+001
      vertex   -3.500000e+000 1.000000e+001 5.500000e+001
    endloop
  endfacet
  facet normal 0.000000e+000 1.000000e+000 -0.000000e+000
    outer loop
      vertex   -3.500000e+000 1.000000e+001 5.500000e+001
      vertex   -1.654452e+001 1.000000e+001 5.633366e+001
      vertex   -3.455484e+000 1.000000e+001 5.633366e+001
    endloop
  endfacet
  facet normal 0.000000e+000 1.000000e+000 0.000000e+000
    outer loop
      vertex   -3.455484e+000 1.000000e+001 5.633366e+001
      vertex   -1.654452e+001 1.000000e+001 5.633366e+001
      vertex   -1.667787e+001 1.000000e+001 5.766139e+001
    endloop
  endfacet
  facet normal 0.000000e+000 1.000000e+000 -0.000000e+000
    outer loop
      vertex   -3.322134e+000 1.000000e+001 5.766139e+001
      vertex   -1.667787e+001 1.000000e+001 5.766139e+001
      vertex   -3.100544e+000 1.000000e+001 5.897727e+001
    endloop
  endfacet
  facet normal 0.000000e+000 1.000000e+000 0.000000e+000
    outer loop
      vertex   -3.322134e+000 1.000000e+001 5.766139e+001
      vertex   -3.455484e+000 1.000000e+001 5.633366e+001
      vertex   -1.667787e+001 1.000000e+001 5.766139e+001
    endloop
  endfacet
  facet normal 0.000000e+000 1.000000e+000 -0.000000e+000
    outer loop
      vertex   -1.667787e+001 1.000000e+001 5.766139e+001
      vertex   -1.689946e+001 1.000000e+001 5.897727e+001
      vertex   -3.100544e+000 1.000000e+001 5.897727e+001
    endloop
  endfacet
  facet normal 0.000000e+000 1.000000e+000 -0.000000e+000
    outer loop
      vertex   -3.100544e+000 1.000000e+001 5.897727e+001
      vertex   -1.689946e+001 1.000000e+001 5.897727e+001
      vertex   -2.791701e+000 1.000000e+001 6.027544e+001
    endloop
  endfacet
  facet normal 0.000000e+000 1.000000e+000 0.000000e+000
    outer loop
      vertex   -2.791701e+000 1.000000e+001 6.027544e+001
      vertex   -1.689946e+001 1.000000e+001 5.897727e+001
      vertex   -1.720830e+001 1.000000e+001 6.027544e+001
    endloop
  endfacet
  facet normal 0.000000e+000 1.000000e+000 0.000000e+000
    outer loop
      vertex   -2.000000e+001 1.000000e+001 8.000000e+001
      vertex   -1.720830e+001 1.000000e+001 6.027544e+001
      vertex   -1.760302e+001 1.000000e+001 6.155013e+001
    endloop
  endfacet
  facet normal -0.000000e+000 1.000000e+000 -0.000000e+000
    outer loop
      vertex   -1.808187e+001 1.000000e+001 6.279566e+001
      vertex   -2.000000e+001 1.000000e+001 8.000000e+001
      vertex   -1.760302e+001 1.000000e+001 6.155013e+001
    endloop
  endfacet
  facet normal 0.000000e+000 1.000000e+000 0.000000e+000
    outer loop
      vertex   -1.808187e+001 1.000000e+001 6.279566e+001
      vertex   -1.864270e+001 1.000000e+001 6.400649e+001
      vertex   -2.000000e+001 1.000000e+001 8.000000e+001
    endloop
  endfacet
  facet normal 0.000000e+000 1.000000e+000 0.000000e+000
    outer loop
      vertex   -2.000000e+001 1.000000e+001 8.000000e+001
      vertex   -1.864270e+001 1.000000e+001 6.400649e+001
      vertex   -1.928303e+001 1.000000e+001 6.517722e+001
    endloop
  endfacet
  facet normal -0.000000e+000 1.000000e+000 0.000000e+000
    outer loop
      vertex   -2.000000e+001 1.000000e+001 6.630265e+001
      vertex   -2.000000e+001 1.000000e+001 8.000000e+001
      vertex   -1.928303e+001 1.000000e+001 6.517722e+001
    endloop
  endfacet
  facet normal 0.000000e+000 1.000000e+000 0.000000e+000
    outer loop
      vertex   -2.791701e+000 1.000000e+001 6.027544e+001
      vertex   -1.720830e+001 1.000000e+001 6.027544e+001
      vertex   -2.000000e+001 1.000000e+001 8.000000e+001
    endloop
  endfacet
  facet normal 0.000000e+000 1.000000e+000 0.000000e+000
    outer loop
      vertex   4.898587e-015 1.000000e+001 8.000000e+001
      vertex   -2.791701e+000 1.000000e+001 6.027544e+001
      vertex   -2.000000e+001 1.000000e+001 8.000000e+001
    endloop
  endfacet
  facet normal 0.000000e+000 1.000000e+000 0.000000e+000
    outer loop
      vertex   4.898587e-015 1.000000e+001 8.000000e+001
      vertex   -2.396978e+000 1.000000e+001 6.155013e+001
      vertex   -2.791701e+000 1.000000e+001 6.027544e+001
    endloop
  endfacet
  facet normal 0.000000e+000 1.000000e+000 0.000000e+000
    outer loop
      vertex   4.898587e-015 1.000000e+001 8.000000e+001
      vertex   -1.918134e+000 1.000000e+001 6.279566e+001
      vertex   -2.396978e+000 1.000000e+001 6.155013e+001
    endloop
  endfacet
  facet normal 0.000000e+000 1.000000e+000 0.000000e+000
    outer loop
      vertex   4.898587e-015 1.000000e+001 8.000000e+001
      vertex   -1.357299e+000 1.000000e+001 6.400649e+001
      vertex   -1.918134e+000 1.000000e+001 6.279566e+001
    endloop
  endfacet
  facet normal 0.000000e+000 1.000000e+000 0.000000e+000
    outer loop
      vertex   4.898587e-015 1.000000e+001 8.000000e+001
      vertex   -7.169711e-001 1.000000e+001 6.517722e+001
      vertex   -1.357299e+000 1.000000e+001 6.400649e+001
    endloop
  endfacet
  facet normal 0.000000e+000 1.000000e+000 0.000000e+000
    outer loop
      vertex   4.898587e-015 1.000000e+001 8.000000e+001
      vertex   4.814808e-015 1.000000e+001 6.630265e+001
      vertex   -7.169711e-001 1.000000e+001 6.517722e+001
    endloop
  endfacet
  facet normal 0.000000e+000 1.000000e+000 0.000000e+000
    outer loop
      vertex   -2.791701e+000 1.000000e+001 1.972456e+001
      vertex   -2.396978e+000 1.000000e+001 1.844987e+001
      vertex   0.000000e+000 1.000000e+001 0.000000e+000
    endloop
  endfacet
  facet normal -0.000000e+000 1.000000e+000 -0.000000e+000
    outer loop
      vertex   0.000000e+000 1.000000e+001 0.000000e+000
      vertex   -2.396978e+000 1.000000e+001 1.844987e+001
      vertex   -1.918134e+000 1.000000e+001 1.720434e+001
    endloop
  endfacet
  facet normal 0.000000e+000 1.000000e+000 0.000000e+000
    outer loop
      vertex   -1.357299e+000 1.000000e+001 1.599351e+001
      vertex   0.000000e+000 1.000000e+001 0.000000e+000
      vertex   -1.918134e+000 1.000000e+001 1.720434e+001
    endloop
  endfacet
  facet normal 0.000000e+000 1.000000e+000 0.000000e+000
    outer loop
      vertex   -1.357299e+000 1.000000e+001 1.599351e+001
      vertex   -7.169711e-001 1.000000e+001 1.482278e+001
      vertex   0.000000e+000 1.000000e+001 0.000000e+000
    endloop
  endfacet
  facet normal -0.000000e+000 1.000000e+000 -0.000000e+000
    outer loop
      vertex   0.000000e+000 1.000000e+001 0.000000e+000
      vertex   -7.169711e-001 1.000000e+001 1.482278e+001
      vertex   1.593662e-015 1.000000e+001 1.369735e+001
    endloop
  endfacet
  facet normal -0.000000e+000 -1.000000e+000 0.000000e+000
    outer loop
      vertex   0.000000e+000 0.000000e+000 0.000000e+000
      vertex   -2.791701e+000 0.000000e+000 1.972456e+001
      vertex   -2.000000e+001 0.000000e+000 9.797174e-015
    endloop
  endfacet
  facet normal 0.000000e+000 -1.000000e+000 0.000000e+000
    outer loop
      vertex   0.000000e+000 0.000000e+000 0.000000e+000
      vertex   -2.396978e+000 0.000000e+000 1.844987e+001
      vertex   -2.791701e+000 0.000000e+000 1.972456e+001
    endloop
  endfacet
  facet normal 0.000000e+000 -1.000000e+000 0.000000e+000
    outer loop
      vertex   0.000000e+000 0.000000e+000 0.000000e+000
      vertex   -1.918134e+000 0.000000e+000 1.720434e+001
      vertex   -2.396978e+000 0.000000e+000 1.844987e+001
    endloop
  endfacet
  facet normal 0.000000e+000 -1.000000e+000 0.000000e+000
    outer loop
      vertex   0.000000e+000 0.000000e+000 0.000000e+000
      vertex   -1.357299e+000 0.000000e+000 1.599351e+001
      vertex   -1.918134e+000 0.000000e+000 1.720434e+001
    endloop
  endfacet
  facet normal 0.000000e+000 -1.000000e+000 0.000000e+000
    outer loop
      vertex   0.000000e+000 0.000000e+000 0.000000e+000
      vertex   -7.169711e-001 0.000000e+000 1.482278e+001
      vertex   -1.357299e+000 0.000000e+000 1.599351e+001
    endloop
  endfacet
  facet normal 0.000000e+000 -1.000000e+000 0.000000e+000
    outer loop
      vertex   0.000000e+000 0.000000e+000 0.000000e+000
      vertex   1.593662e-015 0.000000e+000 1.369735e+001
      vertex   -7.169711e-001 0.000000e+000 1.482278e+001
    endloop
  endfacet
  facet normal -0.000000e+000 -1.000000e+000 -0.000000e+000
    outer loop
      vertex   -3.100544e+000 0.000000e+000 2.102273e+001
      vertex   -1.689946e+001 0.000000e+000 2.102273e+001
      vertex   -2.791701e+000 0.000000e+000 1.972456e+001
    endloop
  endfacet
  facet normal -0.000000e+000 -1.000000e+000 0.000000e+000
    outer loop
      vertex   -3.100544e+000 0.000000e+000 2.102273e+001
      vertex   -1.667787e+001 0.000000e+000 2.233861e+001
      vertex   -1.689946e+001 0.000000e+000 2.102273e+001
    endloop
  endfacet
  facet normal 0.000000e+000 -1.000000e+000 0.000000e+000
    outer loop
      vertex   -3.100544e+000 0.000000e+000 2.102273e+001
      vertex   -3.322134e+000 0.000000e+000 2.233861e+001
      vertex   -1.667787e+001 0.000000e+000 2.233861e+001
    endloop
  endfacet
  facet normal 0.000000e+000 -1.000000e+000 0.000000e+000
    outer loop
      vertex   -1.667787e+001 0.000000e+000 2.233861e+001
      vertex   -3.322134e+000 0.000000e+000 2.233861e+001
      vertex   -3.455484e+000 0.000000e+000 2.366634e+001
    endloop
  endfacet
  facet normal 0.000000e+000 -1.000000e+000 0.000000e+000
    outer loop
      vertex   -1.654452e+001 0.000000e+000 2.366634e+001
      vertex   -3.455484e+000 0.000000e+000 2.366634e+001
      vertex   -3.500000e+000 0.000000e+000 2.500000e+001
    endloop
  endfacet
  facet normal 0.000000e+000 -1.000000e+000 0.000000e+000
    outer loop
      vertex   -1.650000e+001 0.000000e+000 2.500000e+001
      vertex   -3.500000e+000 0.000000e+000 2.500000e+001
      vertex   -3.500000e+000 0.000000e+000 5.500000e+001
    endloop
  endfacet
  facet normal 0.000000e+000 -1.000000e+000 0.000000e+000
    outer loop
      vertex   -1.650000e+001 0.000000e+000 5.500000e+001
      vertex   -3.500000e+000 0.000000e+000 5.500000e+001
      vertex   -1.654452e+001 0.000000e+000 5.633366e+001
    endloop
  endfacet
  facet normal 0.000000e+000 -1.000000e+000 -0.000000e+000
    outer loop
      vertex   -1.650000e+001 0.000000e+000 5.500000e+001
      vertex   -1.650000e+001 0.000000e+000 2.500000e+001
      vertex   -3.500000e+000 0.000000e+000 5.500000e+001
    endloop
  endfacet
  facet normal 0.000000e+000 -1.000000e+000 0.000000e+000
    outer loop
      vertex   -1.667787e+001 0.000000e+000 2.233861e+001
      vertex   -3.455484e+000 0.000000e+000 2.366634e+001
      vertex   -1.654452e+001 0.000000e+000 2.366634e+001
    endloop
  endfacet
  facet normal 0.000000e+000 -1.000000e+000 0.000000e+000
    outer loop
      vertex   -1.654452e+001 0.000000e+000 2.366634e+001
      vertex   -3.500000e+000 0.000000e+000 2.500000e+001
      vertex   -1.650000e+001 0.000000e+000 2.500000e+001
    endloop
  endfacet
  facet normal -0.000000e+000 -1.000000e+000 0.000000e+000
    outer loop
      vertex   -3.500000e+000 0.000000e+000 5.500000e+001
      vertex   -3.455484e+000 0.000000e+000 5.633366e+001
      vertex   -1.654452e+001 0.000000e+000 5.633366e+001
    endloop
  endfacet
  facet normal 0.000000e+000 -1.000000e+000 0.000000e+000
    outer loop
      vertex   -1.654452e+001 0.000000e+000 5.633366e+001
      vertex   -3.455484e+000 0.000000e+000 5.633366e+001
      vertex   -1.667787e+001 0.000000e+000 5.766139e+001
    endloop
  endfacet
  facet normal 0.000000e+000 -1.000000e+000 0.000000e+000
    outer loop
      vertex   -1.667787e+001 0.000000e+000 5.766139e+001
      vertex   -3.455484e+000 0.000000e+000 5.633366e+001
      vertex   -3.322134e+000 0.000000e+000 5.766139e+001
    endloop
  endfacet
  facet normal 0.000000e+000 -1.000000e+000 -0.000000e+000
    outer loop
      vertex   -3.100544e+000 0.000000e+000 5.897727e+001
      vertex   -1.667787e+001 0.000000e+000 5.766139e+001
      vertex   -3.322134e+000 0.000000e+000 5.766139e+001
    endloop
  endfacet
  facet normal 0.000000e+000 -1.000000e+000 -0.000000e+000
    outer loop
      vertex   -3.100544e+000 0.000000e+000 5.897727e+001
      vertex   -1.689946e+001 0.000000e+000 5.897727e+001
      vertex   -1.667787e+001 0.000000e+000 5.766139e+001
    endloop
  endfacet
  facet normal -0.000000e+000 -1.000000e+000 0.000000e+000
    outer loop
      vertex   -3.100544e+000 0.000000e+000 5.897727e+001
      vertex   -2.791701e+000 0.000000e+000 6.027544e+001
      vertex   -1.689946e+001 0.000000e+000 5.897727e+001
    endloop
  endfacet
  facet normal -0.000000e+000 -1.000000e+000 0.000000e+000
    outer loop
      vertex   -1.689946e+001 0.000000e+000 5.897727e+001
      vertex   -2.791701e+000 0.000000e+000 6.027544e+001
      vertex   -1.720830e+001 0.000000e+000 6.027544e+001
    endloop
  endfacet
  facet normal 0.000000e+000 -1.000000e+000 0.000000e+000
    outer loop
      vertex   -1.720830e+001 0.000000e+000 6.027544e+001
      vertex   -2.791701e+000 0.000000e+000 6.027544e+001
      vertex   -2.000000e+001 0.000000e+000 8.000000e+001
    endloop
  endfacet
  facet normal -0.000000e+000 -1.000000e+000 -0.000000e+000
    outer loop
      vertex   -1.760302e+001 0.000000e+000 6.155013e+001
      vertex   -2.000000e+001 0.000000e+000 8.000000e+001
      vertex   -1.808187e+001 0.000000e+000 6.279566e+001
    endloop
  endfacet
  facet normal 0.000000e+000 -1.000000e+000 0.000000e+000
    outer loop
      vertex   -1.760302e+001 0.000000e+000 6.155013e+001
      vertex   -1.720830e+001 0.000000e+000 6.027544e+001
      vertex   -2.000000e+001 0.000000e+000 8.000000e+001
    endloop
  endfacet
  facet normal 0.000000e+000 -1.000000e+000 0.000000e+000
    outer loop
      vertex   -2.000000e+001 0.000000e+000 8.000000e+001
      vertex   -2.791701e+000 0.000000e+000 6.027544e+001
      vertex   4.898587e-015 0.000000e+000 8.000000e+001
    endloop
  endfacet
  facet normal 0.000000e+000 -1.000000e+000 -0.000000e+000
    outer loop
      vertex   4.898587e-015 0.000000e+000 8.000000e+001
      vertex   -2.791701e+000 0.000000e+000 6.027544e+001
      vertex   -2.396978e+000 0.000000e+000 6.155013e+001
    endloop
  endfacet
  facet normal -0.000000e+000 -1.000000e+000 0.000000e+000
    outer loop
      vertex   -1.918134e+000 0.000000e+000 6.279566e+001
      vertex   4.898587e-015 0.000000e+000 8.000000e+001
      vertex   -2.396978e+000 0.000000e+000 6.155013e+001
    endloop
  endfacet
  facet normal 0.000000e+000 -1.000000e+000 0.000000e+000
    outer loop
      vertex   -1.918134e+000 0.000000e+000 6.279566e+001
      vertex   -1.357299e+000 0.000000e+000 6.400649e+001
      vertex   4.898587e-015 0.000000e+000 8.000000e+001
    endloop
  endfacet
  facet normal 0.000000e+000 -1.000000e+000 -0.000000e+000
    outer loop
      vertex   4.898587e-015 0.000000e+000 8.000000e+001
      vertex   -1.357299e+000 0.000000e+000 6.400649e+001
      vertex   -7.169711e-001 0.000000e+000 6.517722e+001
    endloop
  endfacet
  facet normal -0.000000e+000 -1.000000e+000 0.000000e+000
    outer loop
      vertex   4.814808e-015 0.000000e+000 6.630265e+001
      vertex   4.898587e-015 0.000000e+000 8.000000e+001
      vertex   -7.169711e-001 0.000000e+000 6.517722e+001
    endloop
  endfacet
  facet normal 0.000000e+000 -1.000000e+000 0.000000e+000
    outer loop
      vertex   -2.000000e+001 0.000000e+000 6.630265e+001
      vertex   -1.928303e+001 0.000000e+000 6.517722e+001
      vertex   -2.000000e+001 0.000000e+000 8.000000e+001
    endloop
  endfacet
  facet normal 0.000000e+000 -1.000000e+000 0.000000e+000
    outer loop
      vertex   -2.000000e+001 0.000000e+000 8.000000e+001
      vertex   -1.928303e+001 0.000000e+000 6.517722e+001
      vertex   -1.864270e+001 0.000000e+000 6.400649e+001
    endloop
  endfacet
  facet normal -0.000000e+000 -1.000000e+000 -0.000000e+000
    outer loop
      vertex   -1.808187e+001 0.000000e+000 6.279566e+001
      vertex   -2.000000e+001 0.000000e+000 8.000000e+001
      vertex   -1.864270e+001 0.000000e+000 6.400649e+001
    endloop
  endfacet
  facet normal 0.000000e+000 -1.000000e+000 -0.000000e+000
    outer loop
      vertex   -1.689946e+001 0.000000e+000 2.102273e+001
      vertex   -1.720830e+001 0.000000e+000 1.972456e+001
      vertex   -2.791701e+000 0.000000e+000 1.972456e+001
    endloop
  endfacet
  facet normal -0.000000e+000 -1.000000e+000 0.000000e+000
    outer loop
      vertex   -2.791701e+000 0.000000e+000 1.972456e+001
      vertex   -1.720830e+001 0.000000e+000 1.972456e+001
      vertex   -2.000000e+001 0.000000e+000 9.797174e-015
    endloop
  endfacet
  facet normal -0.000000e+000 -1.000000e+000 0.000000e+000
    outer loop
      vertex   -2.000000e+001 0.000000e+000 9.797174e-015
      vertex   -1.720830e+001 0.000000e+000 1.972456e+001
      vertex   -1.760302e+001 0.000000e+000 1.844987e+001
    endloop
  endfacet
  facet normal 0.000000e+000 -1.000000e+000 -0.000000e+000
    outer loop
      vertex   -1.808187e+001 0.000000e+000 1.720434e+001
      vertex   -2.000000e+001 0.000000e+000 9.797174e-015
      vertex   -1.760302e+001 0.000000e+000 1.844987e+001
    endloop
  endfacet
  facet normal 0.000000e+000 -1.000000e+000 0.000000e+000
    outer loop
      vertex   -1.808187e+001 0.000000e+000 1.720434e+001
      vertex   -1.864270e+001 0.000000e+000 1.599351e+001
      vertex   -2.000000e+001 0.000000e+000 9.797174e-015
    endloop
  endfacet
  facet normal -0.000000e+000 -1.000000e+000 0.000000e+000
    outer loop
      vertex   -2.000000e+001 0.000000e+000 9.797174e-015
      vertex   -1.864270e+001 0.000000e+000 1.599351e+001
      vertex   -1.928303e+001 0.000000e+000 1.482278e+001
    endloop
  endfacet
  facet normal 0.000000e+000 -1.000000e+000 -0.000000e+000
    outer loop
      vertex   -2.000000e+001 0.000000e+000 1.369735e+001
      vertex   -2.000000e+001 0.000000e+000 9.797174e-015
      vertex   -1.928303e+001 0.000000e+000 1.482278e+001
    endloop
  endfacet
endsolid
