solid Exported from Blender-2.71 (sub 0)
facet normal -1.000000 0.000000 0.000000
outer loop
vertex 2.500000 12.500000 3.867529
vertex 2.500000 12.500000 0.000000
vertex 2.500000 2.500000 0.000000
endloop
endfacet
facet normal -1.000000 -0.000000 -0.000000
outer loop
vertex 2.500000 2.500000 0.000000
vertex 2.500000 2.500000 3.867529
vertex 2.500000 12.500000 3.867529
endloop
endfacet
facet normal -0.000000 1.000000 0.000000
outer loop
vertex 12.500000 12.500000 3.867529
vertex 12.500000 12.500000 0.000000
vertex 7.500000 12.500000 6.367529
endloop
endfacet
facet normal -0.000000 1.000000 0.000000
outer loop
vertex 12.500000 12.500000 0.000000
vertex 2.500000 12.500000 0.000000
vertex 2.500000 12.500000 3.867529
endloop
endfacet
facet normal 0.000000 1.000000 0.000000
outer loop
vertex 12.500000 12.500000 0.000000
vertex 2.500000 12.500000 3.867529
vertex 7.500000 12.500000 6.367529
endloop
endfacet
facet normal -0.000000 -0.000000 -1.000000
outer loop
vertex 2.500000 2.500000 0.000000
vertex 2.500000 12.500000 0.000000
vertex 12.500000 12.500000 0.000000
endloop
endfacet
facet normal 0.000000 0.000000 -1.000000
outer loop
vertex 12.500000 12.500000 0.000000
vertex 12.500000 2.500000 0.000000
vertex 2.500000 2.500000 0.000000
endloop
endfacet
facet normal -0.000000 -1.000000 0.000000
outer loop
vertex 2.500000 2.500000 3.867529
vertex 2.500000 2.500000 0.000000
vertex 7.500000 2.500000 6.367529
endloop
endfacet
facet normal -0.000000 -1.000000 -0.000000
outer loop
vertex 2.500000 2.500000 0.000000
vertex 12.500000 2.500000 0.000000
vertex 12.500000 2.500000 3.867529
endloop
endfacet
facet normal 0.000000 -1.000000 -0.000000
outer loop
vertex 2.500000 2.500000 0.000000
vertex 12.500000 2.500000 3.867529
vertex 7.500000 2.500000 6.367529
endloop
endfacet
facet normal 1.000000 0.000000 -0.000000
outer loop
vertex 12.500000 2.500000 3.867529
vertex 12.500000 2.500000 0.000000
vertex 12.500000 12.500000 0.000000
endloop
endfacet
facet normal 1.000000 -0.000000 0.000000
outer loop
vertex 12.500000 12.500000 0.000000
vertex 12.500000 12.500000 3.867529
vertex 12.500000 2.500000 3.867529
endloop
endfacet
facet normal -0.447214 0.000000 0.894427
outer loop
vertex 2.500000 12.500000 3.867529
vertex 2.500000 2.500000 3.867529
vertex 7.500000 2.500000 6.367529
endloop
endfacet
facet normal -0.447214 0.000000 0.894427
outer loop
vertex 7.500000 2.500000 6.367529
vertex 7.500000 12.500000 6.367529
vertex 2.500000 12.500000 3.867529
endloop
endfacet
facet normal 0.447214 -0.000000 0.894427
outer loop
vertex 7.500000 12.500000 6.367529
vertex 7.500000 2.500000 6.367529
vertex 12.500000 2.500000 3.867529
endloop
endfacet
facet normal 0.447214 0.000000 0.894427
outer loop
vertex 12.500000 2.500000 3.867529
vertex 12.500000 12.500000 3.867529
vertex 7.500000 12.500000 6.367529
endloop
endfacet
endsolid Exported from Blender-2.71 (sub 0)
